<svg id="Layer_1" data-name="Layer 1" xmlns="http://www.w3.org/2000/svg" xmlns:xlink="http://www.w3.org/1999/xlink" viewBox="0 0 163.61 47"><defs><style>.cls-1{fill:#fff;}.cls-10,.cls-11,.cls-12,.cls-13,.cls-14,.cls-15,.cls-16,.cls-17,.cls-18,.cls-19,.cls-2,.cls-3,.cls-4,.cls-5,.cls-6,.cls-7,.cls-8,.cls-9{fill-rule:evenodd;}.cls-2{fill:url(#linear-gradient);}.cls-3{fill:url(#linear-gradient-2);}.cls-4{fill:url(#linear-gradient-3);}.cls-5{fill:url(#linear-gradient-4);}.cls-6{fill:url(#linear-gradient-5);}.cls-7{fill:url(#linear-gradient-6);}.cls-8{fill:url(#linear-gradient-7);}.cls-9{fill:url(#linear-gradient-8);}.cls-10{fill:url(#linear-gradient-9);}.cls-11{fill:url(#linear-gradient-10);}.cls-12{fill:url(#linear-gradient-11);}.cls-13{fill:url(#linear-gradient-12);}.cls-14{fill:url(#linear-gradient-13);}.cls-15{fill:url(#linear-gradient-14);}.cls-16{fill:url(#linear-gradient-15);}.cls-17{fill:url(#linear-gradient-16);}.cls-18{fill:url(#linear-gradient-17);}.cls-19{fill:url(#linear-gradient-18);}</style><linearGradient id="linear-gradient" x1="23.57" y1="34.05" x2="43.83" y2="34.05" gradientUnits="userSpaceOnUse"><stop offset="0" stop-color="#f17929"/><stop offset="0.44" stop-color="#eb6428"/><stop offset="1" stop-color="#e44d26"/></linearGradient><linearGradient id="linear-gradient-2" x1="23.57" y1="26.85" x2="43.83" y2="26.85" xlink:href="#linear-gradient"/><linearGradient id="linear-gradient-3" x1="23.57" y1="19.65" x2="43.83" y2="19.65" xlink:href="#linear-gradient"/><linearGradient id="linear-gradient-4" x1="23.57" y1="12.45" x2="43.83" y2="12.45" xlink:href="#linear-gradient"/><linearGradient id="linear-gradient-5" x1="23.57" y1="41.24" x2="43.83" y2="41.24" xlink:href="#linear-gradient"/><linearGradient id="linear-gradient-6" x1="23.57" y1="5.59" x2="43.83" y2="5.59" xlink:href="#linear-gradient"/><linearGradient id="linear-gradient-7" x1="-0.11" y1="34.05" x2="9.02" y2="34.05" gradientUnits="userSpaceOnUse"><stop offset="0" stop-color="#e44d26"/><stop offset="0.56" stop-color="#eb6428"/><stop offset="1" stop-color="#f17929"/></linearGradient><linearGradient id="linear-gradient-8" x1="-0.11" y1="26.85" x2="9.02" y2="26.85" xlink:href="#linear-gradient-7"/><linearGradient id="linear-gradient-9" x1="-0.11" y1="19.65" x2="9.02" y2="19.65" xlink:href="#linear-gradient-7"/><linearGradient id="linear-gradient-10" x1="-0.11" y1="41.24" x2="9.02" y2="41.24" xlink:href="#linear-gradient-7"/><linearGradient id="linear-gradient-11" x1="45.92" y1="34.05" x2="67.02" y2="34.05" xlink:href="#linear-gradient-7"/><linearGradient id="linear-gradient-12" x1="45.92" y1="26.85" x2="67.02" y2="26.85" xlink:href="#linear-gradient-7"/><linearGradient id="linear-gradient-13" x1="45.92" y1="19.65" x2="67.02" y2="19.65" xlink:href="#linear-gradient-7"/><linearGradient id="linear-gradient-14" x1="45.92" y1="12.45" x2="67.02" y2="12.45" xlink:href="#linear-gradient-7"/><linearGradient id="linear-gradient-15" x1="45.92" y1="41.24" x2="67.02" y2="41.24" xlink:href="#linear-gradient-7"/><linearGradient id="linear-gradient-16" x1="3071.01" y1="34.05" x2="3092.11" y2="34.05" gradientTransform="matrix(-1, 0, 0, 1, 3161.26, 0)" xlink:href="#linear-gradient-7"/><linearGradient id="linear-gradient-17" x1="3071.01" y1="26.85" x2="3092.11" y2="26.85" gradientTransform="matrix(-1, 0, 0, 1, 3161.26, 0)" xlink:href="#linear-gradient-7"/><linearGradient id="linear-gradient-18" x1="3071.01" y1="41.24" x2="3092.11" y2="41.24" gradientTransform="matrix(-1, 0, 0, 1, 3161.26, 0)" xlink:href="#linear-gradient-7"/></defs><polygon class="cls-1" points="163.02 18.73 163.02 41.48 157.53 41.48 157.53 28.84 151.82 39.01 146.54 39.01 140.83 28.84 140.82 28.82 140.82 41.48 134.55 41.48 121.1 25.59 118.67 22.56 111.02 30.22 111.02 41.48 105.53 41.48 105.53 30.22 94.04 18.73 100.99 18.73 108.28 25.71 115.55 18.73 121.87 18.73 122.16 19.07 135.34 34.62 135.34 18.73 141.34 18.73 149.18 33.5 157.03 18.73 163.02 18.73"/><path class="cls-1" d="M105.51,45.65V43h1.17a1.19,1.19,0,0,1,.7.18.58.58,0,0,1,.24.49.57.57,0,0,1-.1.36.61.61,0,0,1-.25.23.85.85,0,0,1-.35.08l.07-.12a.93.93,0,0,1,.39.08.71.71,0,0,1,.28.23.74.74,0,0,1,.1.38.63.63,0,0,1-.25.52,1.31,1.31,0,0,1-.76.19Zm.37-.31h.86a.86.86,0,0,0,.47-.1.41.41,0,0,0,0-.66.86.86,0,0,0-.47-.11h-.89v-.3h.8a.79.79,0,0,0,.44-.11.35.35,0,0,0,.15-.31.37.37,0,0,0-.15-.32.89.89,0,0,0-.44-.1h-.77Z"/><path class="cls-1" d="M109.12,45.67a.93.93,0,0,1-.45-.1.63.63,0,0,1-.3-.28,1,1,0,0,1-.1-.49V43.66h.36v1.1a.58.58,0,0,0,.14.44.5.5,0,0,0,.39.15.73.73,0,0,0,.33-.08.56.56,0,0,0,.21-.22.8.8,0,0,0,.07-.36v-1h.36v2h-.34v-.54l.06.14a.67.67,0,0,1-.29.31A.93.93,0,0,1,109.12,45.67Z"/><path class="cls-1" d="M111,43.28a.24.24,0,0,1-.18-.07.24.24,0,0,1-.07-.16.26.26,0,0,1,.07-.17.29.29,0,0,1,.18-.07.26.26,0,0,1,.17.07.2.2,0,0,1,.07.16.24.24,0,0,1-.24.24Zm-.18,2.37v-2h.36v2Z"/><path class="cls-1" d="M111.86,45.65V42.87h.36v2.78Z"/><path class="cls-1" d="M113.72,45.67a1,1,0,0,1-.51-.13.93.93,0,0,1-.36-.35,1.17,1.17,0,0,1,0-1.07,1,1,0,0,1,.36-.35,1.07,1.07,0,0,1,.51-.13.9.9,0,0,1,.46.12.79.79,0,0,1,.32.33,1.19,1.19,0,0,1,.12.56,1.2,1.2,0,0,1-.12.57.68.68,0,0,1-.32.33A.85.85,0,0,1,113.72,45.67Zm0-.32a.63.63,0,0,0,.34-.08.64.64,0,0,0,.24-.25.72.72,0,0,0,.09-.37.69.69,0,0,0-.09-.36.64.64,0,0,0-.24-.25.74.74,0,0,0-.34-.08.77.77,0,0,0-.34.08.64.64,0,0,0-.24.25.69.69,0,0,0-.09.36.72.72,0,0,0,.09.37.64.64,0,0,0,.24.25A.66.66,0,0,0,113.75,45.35Zm.68.3v-.54l0-.46,0-.46V42.87h.36v2.78Z"/><path class="cls-1" d="M115.64,43.28a.24.24,0,0,1-.18-.07.24.24,0,0,1-.07-.16.26.26,0,0,1,.07-.17.29.29,0,0,1,.18-.07.26.26,0,0,1,.17.07.2.2,0,0,1,.07.16.24.24,0,0,1-.24.24Zm-.18,2.37v-2h.36v2Z"/><path class="cls-1" d="M117.56,43.64a1,1,0,0,1,.43.1.65.65,0,0,1,.29.28,1,1,0,0,1,.1.48v1.15H118v-1.1a.58.58,0,0,0-.14-.44.49.49,0,0,0-.39-.14.74.74,0,0,0-.34.07.5.5,0,0,0-.21.22.68.68,0,0,0-.08.36v1h-.36v-2h.34v.54l0-.14a.69.69,0,0,1,.3-.31A1,1,0,0,1,117.56,43.64Z"/><path class="cls-1" d="M119.87,45.56a1.07,1.07,0,0,1-.51-.12.9.9,0,0,1-.36-.34,1,1,0,0,1,0-1,1,1,0,0,1,.36-.34,1.07,1.07,0,0,1,.51-.12,1,1,0,0,1,.46.11.78.78,0,0,1,.34.31,1.13,1.13,0,0,1,.12.54,1.11,1.11,0,0,1-.12.54.81.81,0,0,1-.34.32A1,1,0,0,1,119.87,45.56Zm0,.83a1.81,1.81,0,0,1-.52-.07,1.11,1.11,0,0,1-.42-.22l.17-.28a1.11,1.11,0,0,0,.34.19,1.23,1.23,0,0,0,.42.07.75.75,0,0,0,.52-.16.69.69,0,0,0,.16-.51V45l0-.39,0-.39v-.55h.34v1.72a1,1,0,0,1-.26.77A1.09,1.09,0,0,1,119.91,46.39Zm0-1.14a.78.78,0,0,0,.35-.08.54.54,0,0,0,.24-.23.64.64,0,0,0,.09-.34.58.58,0,0,0-.09-.33.49.49,0,0,0-.24-.23.81.81,0,0,0-.7,0,.56.56,0,0,0-.25.23.67.67,0,0,0-.08.33.74.74,0,0,0,.08.34.62.62,0,0,0,.25.23A.78.78,0,0,0,119.91,45.25Z"/><path class="cls-1" d="M122.69,45.65V43h.3l1.18,2H124l1.16-2h.31v2.62h-.36V43.59h.09l-1,1.74H124l-1-1.74h.1v2.06Z"/><path class="cls-1" d="M126.79,45.67a.93.93,0,0,1-.39-.08.67.67,0,0,1-.26-.2.54.54,0,0,1-.09-.31.6.6,0,0,1,.08-.29.6.6,0,0,1,.25-.21,1.21,1.21,0,0,1,.47-.08h.63v.26h-.62a.54.54,0,0,0-.36.09.29.29,0,0,0-.09.22.27.27,0,0,0,.12.23.49.49,0,0,0,.32.09.68.68,0,0,0,.35-.09.56.56,0,0,0,.22-.26l.07.25a.61.61,0,0,1-.25.28A1,1,0,0,1,126.79,45.67Zm.65,0v-.42l0-.08v-.72a.48.48,0,0,0-.13-.35.6.6,0,0,0-.4-.12,1.06,1.06,0,0,0-.35,0,.85.85,0,0,0-.28.16l-.15-.27a1,1,0,0,1,.37-.19,1.63,1.63,0,0,1,.45-.07.93.93,0,0,1,.63.2.82.82,0,0,1,.22.61v1.2Z"/><path class="cls-1" d="M128.16,44v-.3h1.26V44Zm1,1.71a.66.66,0,0,1-.46-.16.61.61,0,0,1-.16-.46V43.23h.36V45a.33.33,0,0,0,.08.25.29.29,0,0,0,.23.09.45.45,0,0,0,.28-.1l.11.26a.47.47,0,0,1-.2.1A.61.61,0,0,1,129.12,45.67Z"/><path class="cls-1" d="M130.81,45.67a1.25,1.25,0,0,1-.56-.13,1,1,0,0,1-.38-.36,1.12,1.12,0,0,1-.13-.53,1,1,0,0,1,.13-.52,1,1,0,0,1,.36-.36,1.07,1.07,0,0,1,1,0,1,1,0,0,1,.34.36,1.13,1.13,0,0,1,.13.54.11.11,0,0,1,0,0v.05H130v-.25h1.5l-.14.09a.74.74,0,0,0-.08-.34.66.66,0,0,0-.23-.24.7.7,0,0,0-.33-.08.74.74,0,0,0-.34.08.71.71,0,0,0-.31.58v.06a.71.71,0,0,0,.09.36.75.75,0,0,0,.26.24.79.79,0,0,0,.38.08.83.83,0,0,0,.32-.06.64.64,0,0,0,.25-.18l.2.24a1,1,0,0,1-.34.24A1.23,1.23,0,0,1,130.81,45.67Z"/><path class="cls-1" d="M132.22,45.65v-2h.34v.54l0-.13a.6.6,0,0,1,.27-.32,1,1,0,0,1,.48-.11V44h-.08a.64.64,0,0,0-.46.17.7.7,0,0,0-.17.5v1Z"/><path class="cls-1" d="M133.9,43.28a.21.21,0,0,1-.17-.07.2.2,0,0,1-.07-.16.22.22,0,0,1,.07-.17.24.24,0,0,1,.17-.07.29.29,0,0,1,.18.07.24.24,0,0,1,.07.16.24.24,0,0,1-.25.24Zm-.18,2.37v-2h.36v2Z"/><path class="cls-1" d="M135.35,45.67a.93.93,0,0,1-.39-.08.67.67,0,0,1-.26-.2.54.54,0,0,1-.09-.31.6.6,0,0,1,.08-.29.6.6,0,0,1,.25-.21,1.21,1.21,0,0,1,.47-.08H136v.26h-.62a.54.54,0,0,0-.36.09.29.29,0,0,0-.09.22.28.28,0,0,0,.11.23.54.54,0,0,0,.33.09.68.68,0,0,0,.35-.09A.56.56,0,0,0,136,45l.07.25a.61.61,0,0,1-.25.28A1,1,0,0,1,135.35,45.67Zm.65,0v-.42l0-.08v-.72a.48.48,0,0,0-.13-.35.6.6,0,0,0-.4-.12,1,1,0,0,0-.35,0,.85.85,0,0,0-.28.16l-.15-.27a1,1,0,0,1,.37-.19,1.63,1.63,0,0,1,.45-.07.93.93,0,0,1,.63.2.82.82,0,0,1,.22.61v1.2Z"/><path class="cls-1" d="M137,45.65V42.87h.36v2.78Z"/><path class="cls-1" d="M138.62,45.67a1.41,1.41,0,0,1-.47-.07,1,1,0,0,1-.35-.16l.15-.29a1.12,1.12,0,0,0,.31.15,1.21,1.21,0,0,0,.38.06.75.75,0,0,0,.36-.07.22.22,0,0,0,.11-.2.2.2,0,0,0-.06-.15.75.75,0,0,0-.18-.08l-.25,0-.27-.06a1.35,1.35,0,0,1-.24-.08.42.42,0,0,1-.18-.17.43.43,0,0,1-.07-.27.46.46,0,0,1,.1-.31.64.64,0,0,1,.29-.21,1.15,1.15,0,0,1,.44-.08,1.74,1.74,0,0,1,.39,0,1.26,1.26,0,0,1,.33.13l-.15.29A1.23,1.23,0,0,0,139,44a1.36,1.36,0,0,0-.29,0,.67.67,0,0,0-.35.08.21.21,0,0,0-.11.19.21.21,0,0,0,.06.16.49.49,0,0,0,.18.08l.25,0,.27.06.24.08a.4.4,0,0,1,.18.16.45.45,0,0,1,.07.27.48.48,0,0,1-.1.31.68.68,0,0,1-.3.21A1.52,1.52,0,0,1,138.62,45.67Z"/><path class="cls-1" d="M141.5,45.65v-2.3h-.9V43h2.17v.32h-.9v2.3Z"/><path class="cls-1" d="M143.08,45.65v-2h.34v.54l0-.13a.6.6,0,0,1,.27-.32,1,1,0,0,1,.48-.11V44h-.08a.64.64,0,0,0-.46.17.7.7,0,0,0-.17.5v1Z"/><path class="cls-1" d="M145,45.67a.93.93,0,0,1-.39-.08.67.67,0,0,1-.26-.2.54.54,0,0,1-.09-.31.6.6,0,0,1,.08-.29.6.6,0,0,1,.25-.21,1.21,1.21,0,0,1,.47-.08h.63v.26h-.62a.54.54,0,0,0-.36.09.29.29,0,0,0-.09.22.27.27,0,0,0,.12.23.49.49,0,0,0,.32.09.68.68,0,0,0,.35-.09.56.56,0,0,0,.22-.26l.07.25a.61.61,0,0,1-.25.28A1,1,0,0,1,145,45.67Zm.65,0v-.42l0-.08v-.72a.48.48,0,0,0-.13-.35.6.6,0,0,0-.4-.12,1.06,1.06,0,0,0-.35,0,.85.85,0,0,0-.28.16l-.15-.27a1,1,0,0,1,.37-.19,1.63,1.63,0,0,1,.45-.07.93.93,0,0,1,.63.2.82.82,0,0,1,.22.61v1.2Z"/><path class="cls-1" d="M147.49,45.67a1,1,0,0,1-.51-.13.93.93,0,0,1-.36-.35,1.05,1.05,0,0,1-.13-.54,1,1,0,0,1,.13-.53,1,1,0,0,1,.36-.35,1.07,1.07,0,0,1,.51-.13.9.9,0,0,1,.46.12.79.79,0,0,1,.32.33,1.19,1.19,0,0,1,.12.56,1.2,1.2,0,0,1-.12.57.73.73,0,0,1-.32.33A.88.88,0,0,1,147.49,45.67Zm0-.32a.63.63,0,0,0,.34-.08.64.64,0,0,0,.24-.25.72.72,0,0,0,.09-.37.69.69,0,0,0-.09-.36.64.64,0,0,0-.24-.25.74.74,0,0,0-.34-.08.77.77,0,0,0-.34.08.64.64,0,0,0-.24.25.69.69,0,0,0-.09.36.72.72,0,0,0,.09.37.64.64,0,0,0,.24.25A.66.66,0,0,0,147.52,45.35Zm.68.3v-.54l0-.46,0-.46V42.87h.36v2.78Z"/><path class="cls-1" d="M149.4,43.28a.22.22,0,0,1-.17-.07.2.2,0,0,1-.07-.16.22.22,0,0,1,.07-.17.26.26,0,0,1,.17-.07.29.29,0,0,1,.18.07.24.24,0,0,1,.07.16.24.24,0,0,1-.07.17A.23.23,0,0,1,149.4,43.28Zm-.18,2.37v-2h.36v2Z"/><path class="cls-1" d="M151.33,43.64a1,1,0,0,1,.43.1.65.65,0,0,1,.29.28,1,1,0,0,1,.1.48v1.15h-.36v-1.1a.63.63,0,0,0-.14-.44.49.49,0,0,0-.39-.14.74.74,0,0,0-.34.07.58.58,0,0,0-.22.22.8.8,0,0,0-.07.36v1h-.36v-2h.34v.54l-.05-.14a.69.69,0,0,1,.3-.31A1,1,0,0,1,151.33,43.64Z"/><path class="cls-1" d="M153.64,45.56a1.14,1.14,0,0,1-.52-.12.82.82,0,0,1-.35-.34,1,1,0,0,1,0-1,.88.88,0,0,1,.35-.34,1.14,1.14,0,0,1,.52-.12,1,1,0,0,1,.46.11.84.84,0,0,1,.34.31,1.13,1.13,0,0,1,.12.54,1.11,1.11,0,0,1-.12.54.87.87,0,0,1-.34.32A1,1,0,0,1,153.64,45.56Zm0,.83a1.93,1.93,0,0,1-.53-.07,1.06,1.06,0,0,1-.41-.22l.17-.28a1,1,0,0,0,.34.19,1.16,1.16,0,0,0,.42.07.75.75,0,0,0,.52-.16.69.69,0,0,0,.16-.51V45l0-.39,0-.39v-.55h.34v1.72a1,1,0,0,1-.26.77A1.09,1.09,0,0,1,153.68,46.39Zm0-1.14a.78.78,0,0,0,.35-.08.66.66,0,0,0,.24-.23.64.64,0,0,0,.09-.34.58.58,0,0,0-.09-.33A.59.59,0,0,0,154,44a.81.81,0,0,0-.7,0,.56.56,0,0,0-.25.23.58.58,0,0,0-.08.33.63.63,0,0,0,.08.34.62.62,0,0,0,.25.23A.78.78,0,0,0,153.68,45.25Z"/><path class="cls-1" d="M156.46,45.65V43h.37v2.29h1.42v.33Z"/><path class="cls-1" d="M158.68,45.65V43h.37v2.29h1.42v.33Z"/><path class="cls-1" d="M162,45.68a1.63,1.63,0,0,1-.55-.1,1.44,1.44,0,0,1-.44-.28,1.55,1.55,0,0,1-.29-.43,1.32,1.32,0,0,1-.1-.53,1.33,1.33,0,0,1,.1-.54,1.3,1.3,0,0,1,.73-.7A1.47,1.47,0,0,1,162,43a1.42,1.42,0,0,1,.55.1,1.15,1.15,0,0,1,.44.3l-.24.24a1,1,0,0,0-.34-.23,1.06,1.06,0,0,0-.4-.08,1.1,1.1,0,0,0-.41.07,1,1,0,0,0-.33.21,1,1,0,0,0-.21.32,1.11,1.11,0,0,0-.08.41,1.06,1.06,0,0,0,.08.4,1,1,0,0,0,.21.32,1,1,0,0,0,.33.21,1.1,1.1,0,0,0,.41.07,1.05,1.05,0,0,0,.4-.07.88.88,0,0,0,.34-.24l.24.23a1.07,1.07,0,0,1-.44.31A1.43,1.43,0,0,1,162,45.68Z"/><path class="cls-1" d="M109,5.29a1.72,1.72,0,0,1-.51,1.29,1.92,1.92,0,0,1-2.56,0,1.74,1.74,0,0,1-.49-1.29,1.7,1.7,0,0,1,.28-1,2.43,2.43,0,0,1,.79-.73l.14-.09L106.17,3h1.21l.68.6a3.34,3.34,0,0,1,.73.82A1.66,1.66,0,0,1,109,5.29Zm-2.19-3.17h-.55V1.57h.55Zm1.18,3a.78.78,0,0,0-.16-.47,3.2,3.2,0,0,0-.49-.51l-.05,0-.14.08a1.66,1.66,0,0,0-.5.42.82.82,0,0,0-.17.53.56.56,0,0,0,.2.42.78.78,0,0,0,.54.18.83.83,0,0,0,.55-.19A.55.55,0,0,0,108,5.12Zm-.17-3h-.55V1.57h.55Z"/><path class="cls-1" d="M112.44,5.87a2.76,2.76,0,0,1-.27,1.24,2.22,2.22,0,0,1-.92.93,4.67,4.67,0,0,1-1,.42,3.42,3.42,0,0,1-1,.13V7.23a3.79,3.79,0,0,0,.63-.07,3,3,0,0,0,.68-.2,1.33,1.33,0,0,0,.56-.39.9.9,0,0,0,.18-.57,2.53,2.53,0,0,0-.17-.87,4.19,4.19,0,0,0-.31-.68v0H112a3.23,3.23,0,0,1,.26.55A2.3,2.3,0,0,1,112.44,5.87Z"/><path class="cls-1" d="M115.5,7h-.37a1.42,1.42,0,0,1-1.2-.62,2.78,2.78,0,0,1-.44-1.63V1.15h1v3.6a1,1,0,0,0,.07.4.88.88,0,0,0,.16.27.66.66,0,0,0,.24.17.94.94,0,0,0,.3,0h.2Z"/><path class="cls-1" d="M118.84,6a12.94,12.94,0,0,1-1.33.7,2.87,2.87,0,0,1-1.17.32h-1.1V5.64h1.13a3.61,3.61,0,0,0,1.29-.2,9,9,0,0,0,1.22-.56,5.35,5.35,0,0,0-1-.32,6.11,6.11,0,0,0-1.2-.12h-.76V3.28h.8a4.38,4.38,0,0,1,1.4.24,8.74,8.74,0,0,1,1.72.83l1.08-.57v1l-1.32.75a.61.61,0,0,0,.17.07.75.75,0,0,0,.23,0h1.31V7h-1.15a1.55,1.55,0,0,1-.94-.24A1,1,0,0,1,118.84,6Zm-.56,2.12h-.56V7.54h.56Z"/><path class="cls-1" d="M124.27,7h-.37a1.42,1.42,0,0,1-.7-.17,1,1,0,0,1-.43-.39,1.06,1.06,0,0,1-.45.41,1.41,1.41,0,0,1-.67.15H121V5.64h.46a.68.68,0,0,0,.55-.23.89.89,0,0,0,.22-.66V4.29h1v.46a1,1,0,0,0,.2.65.7.7,0,0,0,.56.24h.21Zm-1.84-3.62h-.56V2.82h.56Zm1,0h-.56V2.82h.56Z"/><path class="cls-1" d="M126.29,4.75a2.79,2.79,0,0,1-.44,1.62,1.4,1.4,0,0,1-1.21.63H124V5.64h.47a.79.79,0,0,0,.3,0,.66.66,0,0,0,.24-.17,1,1,0,0,0,.17-.27,1.16,1.16,0,0,0,.06-.4V1.15h1.05Z"/><path class="cls-1" d="M133.33,3.94a2.15,2.15,0,0,1,.42.6,2,2,0,0,1,.15.79,2,2,0,0,1-.16.85,1.58,1.58,0,0,1-.4.53,1.88,1.88,0,0,1-.5.27,1.92,1.92,0,0,1-.5.08,1.76,1.76,0,0,1-.63-.12,1.84,1.84,0,0,1-.56-.33A2.92,2.92,0,0,1,130.33,8a2.8,2.8,0,0,1-1.18.64V7.24a2.22,2.22,0,0,0,.47-.2,1.44,1.44,0,0,0,.39-.36,2,2,0,0,0,.32-.62,5.59,5.59,0,0,0,.2-1A2.06,2.06,0,0,1,131,3.86a1.36,1.36,0,0,1,1.07-.42,1.8,1.8,0,0,1,.69.13A1.73,1.73,0,0,1,133.33,3.94Zm-.49,1.3a.62.62,0,0,0-.22-.47.76.76,0,0,0-.52-.19.51.51,0,0,0-.38.16.54.54,0,0,0-.15.38.51.51,0,0,0,.21.41.76.76,0,0,0,.51.18.57.57,0,0,0,.4-.13A.42.42,0,0,0,132.84,5.24Z"/><path class="cls-1" d="M136.08,8.59h-1.26V8.23h.27a.29.29,0,0,1-.14-.15.49.49,0,0,1-.06-.23.61.61,0,0,1,.17-.42.65.65,0,0,1,.48-.18l.3,0,.13,0v.38h0l-.18-.06-.22,0a.37.37,0,0,0-.25.07.22.22,0,0,0-.08.18.35.35,0,0,0,.17.28.78.78,0,0,0,.41.1h.28ZM136,7H135V1.16H136Z"/><path class="cls-1" d="M144.49,4.62a2.69,2.69,0,0,1-.2,1.07,2,2,0,0,1-.54.74,2.22,2.22,0,0,1-.8.43A3.46,3.46,0,0,1,142,7a3.52,3.52,0,0,1-1-.14,2.42,2.42,0,0,1-.81-.43,2.08,2.08,0,0,1-.55-.74,2.69,2.69,0,0,1-.2-1.07,8.2,8.2,0,0,1,.07-.91c0-.35.07-.54.07-.58h1.06v0l-.09.54a7.26,7.26,0,0,0-.07.92.84.84,0,0,0,.47.75,1.93,1.93,0,0,0,1,.27,2,2,0,0,0,1-.27.82.82,0,0,0,.47-.75,6.54,6.54,0,0,0-.06-.89c0-.29-.08-.48-.1-.57v0h1.05q0,.14.09.66A7.62,7.62,0,0,1,144.49,4.62Zm-2.25-2.14h-.55V1.92h.55Z"/><path class="cls-1" d="M146.67,8.59h-1.26V8.23h.28a.36.36,0,0,1-.15-.15.49.49,0,0,1-.06-.23.58.58,0,0,1,.18-.42.65.65,0,0,1,.48-.18l.29,0,.14,0v.38h0l-.18-.06-.22,0a.33.33,0,0,0-.24.07.2.2,0,0,0-.09.18.34.34,0,0,0,.18.28.76.76,0,0,0,.41.1h.27ZM146.61,7h-1V1.16h1Z"/><path class="cls-1" d="M156.56,3.49h0a2.49,2.49,0,0,0-.66-.2A4.68,4.68,0,0,0,155,3.2a1.58,1.58,0,0,0-.6.09c-.14.06-.21.14-.21.25s.13.17.4.26l.83.26.44.18a3.15,3.15,0,0,1,.41.23,1.58,1.58,0,0,1,.28.3.7.7,0,0,1,.1.38,1.51,1.51,0,0,1-1,1.37,6.85,6.85,0,0,1-2.94.5,3.32,3.32,0,0,1-2-.48A1.76,1.76,0,0,1,150,5a7.08,7.08,0,0,1,0-.85c0-.25.06-.39.07-.42h1v.06s0,.2-.06.46a6.58,6.58,0,0,0,0,.74.51.51,0,0,0,.32.47,3.2,3.2,0,0,0,1.28.17,14.36,14.36,0,0,0,2.16-.12c.49-.07.73-.2.73-.38s-.09-.17-.28-.24a7,7,0,0,0-.84-.27,3.14,3.14,0,0,1-.51-.18,2.48,2.48,0,0,1-.44-.24,1.32,1.32,0,0,1-.28-.3.77.77,0,0,1-.11-.4,1.34,1.34,0,0,1,.52-1.08A2,2,0,0,1,155,2a5.11,5.11,0,0,1,.9.08,4.51,4.51,0,0,1,.7.19Zm-4,4.6H152V7.53h.56Zm1,0H153V7.53h.56Z"/><path class="cls-1" d="M158.71,7h-1V1.16h1Z"/><path class="cls-1" d="M163,6a2.45,2.45,0,0,1-.35,1.32,2.27,2.27,0,0,1-1,.86,5.3,5.3,0,0,1-1,.34,5.62,5.62,0,0,1-1.19.1V7.3c.21,0,.43,0,.66,0s.46-.06.68-.11a3.1,3.1,0,0,0,.69-.24,1,1,0,0,0,.43-.39l-.21,0-.2,0a1.74,1.74,0,0,1-1.24-.44A1.5,1.5,0,0,1,159.76,5a1.69,1.69,0,0,1,.46-1.21,1.39,1.39,0,0,1,1.06-.49,1.47,1.47,0,0,1,1.23.73A3.26,3.26,0,0,1,163,6Zm-1.11-.66a1.31,1.31,0,0,0-.23-.57.44.44,0,0,0-.36-.21.55.55,0,0,0-.36.13.47.47,0,0,0-.16.34.33.33,0,0,0,.15.25.75.75,0,0,0,.46.11,1.62,1.62,0,0,0,.31,0Z"/><path class="cls-1" d="M98.22,13.18a1.94,1.94,0,0,1,.41.6,1.77,1.77,0,0,1,.16.79,2.11,2.11,0,0,1-.16.85,1.58,1.58,0,0,1-.4.53,1.88,1.88,0,0,1-.5.27,1.92,1.92,0,0,1-.51.08,1.75,1.75,0,0,1-.62-.12,1.84,1.84,0,0,1-.56-.33,2.92,2.92,0,0,1-.82,1.34,2.8,2.8,0,0,1-1.18.64V16.48a2.22,2.22,0,0,0,.47-.2,1.44,1.44,0,0,0,.39-.36,2,2,0,0,0,.32-.62,5.59,5.59,0,0,0,.2-1,2.06,2.06,0,0,1,.45-1.19,1.36,1.36,0,0,1,1.07-.42,1.8,1.8,0,0,1,.69.13A1.73,1.73,0,0,1,98.22,13.18Zm-.49,1.3a.6.6,0,0,0-.22-.47.76.76,0,0,0-.52-.19.51.51,0,0,0-.38.16.52.52,0,0,0-.15.38.51.51,0,0,0,.21.41.76.76,0,0,0,.51.18.58.58,0,0,0,.4-.13A.42.42,0,0,0,97.73,14.48Z"/><path class="cls-1" d="M101.12,16.24H99.79V14.76h1.33Z"/><path class="cls-1" d="M105.84,13.18a1.94,1.94,0,0,1,.41.6,1.92,1.92,0,0,1,.16.79,2,2,0,0,1-.17.85,1.46,1.46,0,0,1-.4.53,1.62,1.62,0,0,1-.5.27,1.8,1.8,0,0,1-.5.08,1.67,1.67,0,0,1-.62-.12,2,2,0,0,1-.57-.33,2.77,2.77,0,0,1-2,2V16.48a1.85,1.85,0,0,0,.47-.2,1.47,1.47,0,0,0,.4-.36,2,2,0,0,0,.31-.62,4.27,4.27,0,0,0,.2-1,2.06,2.06,0,0,1,.46-1.19,1.35,1.35,0,0,1,1.07-.42,1.8,1.8,0,0,1,.69.13A1.83,1.83,0,0,1,105.84,13.18Zm-.49,1.3a.61.61,0,0,0-.23-.47.74.74,0,0,0-.51-.19.49.49,0,0,0-.38.16.52.52,0,0,0-.15.38.51.51,0,0,0,.21.41.76.76,0,0,0,.51.18.58.58,0,0,0,.4-.13A.42.42,0,0,0,105.35,14.48Z"/><path class="cls-1" d="M108.73,16.24H107.4V14.76h1.33Z"/><path class="cls-1" d="M112.16,13.15a3.68,3.68,0,0,1,.67.7,1.29,1.29,0,0,1,.28.75,1.57,1.57,0,0,1-.47,1.21,1.83,1.83,0,0,1-1.26.43h-1.81V14.88h1.8a1.43,1.43,0,0,0,.54-.07.26.26,0,0,0,.15-.23.56.56,0,0,0-.12-.32,1.78,1.78,0,0,0-.34-.32,4.7,4.7,0,0,0-.52-.34l-.69-.4V12h0c.25.14.53.32.87.53A9.89,9.89,0,0,1,112.16,13.15Zm-1.35-2.07h-.55v-.56h.55Z"/><path class="cls-1" d="M115.33,16.24H114V14.76h1.33Z"/><path class="cls-1" d="M126.2,14a3.68,3.68,0,0,1-.11.89,2.18,2.18,0,0,1-.33.72,1.55,1.55,0,0,1-.53.49,1.51,1.51,0,0,1-.73.17,1.72,1.72,0,0,1-.75-.17,1.11,1.11,0,0,1-.48-.38,1.3,1.3,0,0,1-.52.41,1.77,1.77,0,0,1-.69.14,1,1,0,0,1-.43-.1.89.89,0,0,1-.33-.27,2.07,2.07,0,0,1-.83,1.41,2.74,2.74,0,0,1-1.7.53,2.82,2.82,0,0,1-1-.16,2.25,2.25,0,0,1-.77-.47,2,2,0,0,1-.51-.78,2.71,2.71,0,0,1-.19-1.06,6.41,6.41,0,0,1,.06-.95c0-.26.07-.42.08-.49h1.06v0s0,.21-.08.54a6,6,0,0,0-.08.86,1,1,0,0,0,.4.82,1.63,1.63,0,0,0,1,.31,1.49,1.49,0,0,0,1.08-.39,1.32,1.32,0,0,0,.41-1c0-.35,0-.69,0-1s0-.5,0-.53h1.15a2.18,2.18,0,0,0,.19,1,.6.6,0,0,0,.52.36.59.59,0,0,0,.49-.24.87.87,0,0,0,.2-.58v-.56h1v.57a1,1,0,0,0,.16.55.5.5,0,0,0,.45.23.76.76,0,0,0,.54-.21,1,1,0,0,0,.21-.68v-1.1h1Zm-4.41-1.37h-.55v-.55h.55Zm.56-.78h-.56v-.56h.56Zm.56.78h-.56v-.55h.56Z"/><path class="cls-1" d="M131.77,15.68l-2.32.72v-1l.37-.12a.87.87,0,0,1-.36-.32.88.88,0,0,1-.18-.51,1.16,1.16,0,0,1,.37-.9,1.3,1.3,0,0,1,1-.36,3.73,3.73,0,0,1,.5,0l.38.07v1h0l-.36-.07-.44,0a.64.64,0,0,0-.36.09.28.28,0,0,0-.12.23.38.38,0,0,0,.18.32,1.28,1.28,0,0,0,.49.16l.92-.27Z"/><path class="cls-1" d="M134.79,16.24h-.36a1.42,1.42,0,0,1-1.21-.62,2.78,2.78,0,0,1-.44-1.63v-3.6h1V14a1,1,0,0,0,.07.4.88.88,0,0,0,.16.27.81.81,0,0,0,.24.17.94.94,0,0,0,.3.05h.2Z"/><path class="cls-1" d="M137.78,16.24h-.38a1.45,1.45,0,0,1-.7-.17,1.07,1.07,0,0,1-.42-.39,1.19,1.19,0,0,1-.45.41,1.41,1.41,0,0,1-.67.15h-.63V14.88H135a.68.68,0,0,0,.55-.23.94.94,0,0,0,.22-.66v-.46h1V14a1,1,0,0,0,.21.65.68.68,0,0,0,.56.24h.21Zm-1.24-3.62H136v-.56h.55Z"/><path class="cls-1" d="M140.76,16.24h-.38a1.41,1.41,0,0,1-.69-.17,1,1,0,0,1-.43-.39,1.06,1.06,0,0,1-.45.41,1.41,1.41,0,0,1-.67.15h-.63V14.88H138a.68.68,0,0,0,.55-.23.89.89,0,0,0,.22-.66v-.46h1V14a1,1,0,0,0,.2.65.7.7,0,0,0,.56.24h.21Zm-1.48,1.1h-.56v-.55h.56Z"/><path class="cls-1" d="M142.78,14a2.79,2.79,0,0,1-.44,1.62,1.4,1.4,0,0,1-1.21.63h-.64V14.88H141a1,1,0,0,0,.3-.05.66.66,0,0,0,.24-.17,1,1,0,0,0,.17-.27,1.16,1.16,0,0,0,.06-.4v-3.6h1.05Z"/><path class="cls-1" d="M145,16.25h-1V10.4h1Z"/><path class="cls-1" d="M150.88,13.15a3.39,3.39,0,0,1,.67.7,1.23,1.23,0,0,1,.28.75,1.57,1.57,0,0,1-.47,1.21,1.81,1.81,0,0,1-1.26.43h-1.81V14.88h1.81a1.37,1.37,0,0,0,.53-.07.27.27,0,0,0,.16-.23.56.56,0,0,0-.12-.32,2.26,2.26,0,0,0-.35-.32,5.64,5.64,0,0,0-.51-.34l-.69-.4V12h0l.86.53A7.59,7.59,0,0,1,150.88,13.15Z"/><path class="cls-1" d="M153.84,16.25h-1V10.4h1Z"/><path class="cls-1" d="M158.89,16.24h0l-.47,0-.33,0a2.17,2.17,0,0,1-.69.84,3.55,3.55,0,0,1-1,.5,5.07,5.07,0,0,1-1,.24,5.33,5.33,0,0,1-.86.07V16.54a5.45,5.45,0,0,0,1-.09,5.57,5.57,0,0,0,.76-.19,3.33,3.33,0,0,0,.47-.19l.14-.09a2.38,2.38,0,0,1-1.43-.58,1.54,1.54,0,0,1-.5-1.14,1.72,1.72,0,0,1,.45-1.2,1.35,1.35,0,0,1,1.07-.5,1.43,1.43,0,0,1,1.18.64,3.09,3.09,0,0,1,.55,1.66h.64Zm-1.74-1.44a1.76,1.76,0,0,0-.24-.81q-.18-.3-.39-.3a.43.43,0,0,0-.34.16.6.6,0,0,0-.14.39c0,.15.11.27.33.38A2.24,2.24,0,0,0,157.15,14.8Z"/><path class="cls-1" d="M163,14.63a1.65,1.65,0,0,1-.45,1.2,1.49,1.49,0,0,1-1.11.47,1.68,1.68,0,0,1-.63-.12,1.64,1.64,0,0,1-.54-.32,1.47,1.47,0,0,1-.48.28,1.89,1.89,0,0,1-.63.1h-.55V14.88h.57a.34.34,0,0,0,.34-.18.86.86,0,0,0,.11-.41,1.86,1.86,0,0,1,.45-1.16,1.41,1.41,0,0,1,1.08-.45,1.81,1.81,0,0,1,.69.14,1.77,1.77,0,0,1,.58.38,1.81,1.81,0,0,1,.41.62A1.92,1.92,0,0,1,163,14.63ZM162,14.48a.61.61,0,0,0-.23-.47.75.75,0,0,0-.51-.19.49.49,0,0,0-.38.16.52.52,0,0,0-.15.38.51.51,0,0,0,.21.41.74.74,0,0,0,.51.18.6.6,0,0,0,.4-.13A.42.42,0,0,0,162,14.48Z"/><polygon class="cls-2" points="44.68 34.68 36.71 29.65 23.57 36.43 23.57 38.43 36.71 31.64 36.71 33.42 44.68 38.45 44.68 34.68 44.68 34.68"/><polygon class="cls-3" points="44.68 27.48 36.71 22.45 23.57 29.24 23.57 31.23 36.71 24.44 36.71 26.22 44.68 31.25 44.68 27.48 44.68 27.48"/><polygon class="cls-4" points="44.68 20.28 36.71 15.25 23.57 22.04 23.57 24.03 36.71 17.25 36.71 19.02 44.68 24.05 44.68 20.28 44.68 20.28"/><polygon class="cls-5" points="44.68 13.08 36.71 8.06 23.57 14.84 23.57 16.84 36.71 10.05 36.71 11.83 44.68 16.85 44.68 13.08 44.68 13.08"/><polygon class="cls-6" points="44.68 41.87 36.71 36.84 23.57 43.63 23.57 45.63 36.71 38.84 36.71 40.62 44.68 45.64 44.68 41.87 44.68 41.87"/><polygon class="cls-7" points="44.68 6.21 36.71 1.19 23.57 7.97 23.57 9.97 36.71 3.18 36.71 4.96 44.68 9.98 44.68 6.21 44.68 6.21"/><polygon class="cls-8" points="0.34 34.68 8.31 29.65 21.44 36.43 21.44 38.43 8.31 31.64 8.31 33.42 0.34 38.45 0.34 34.68 0.34 34.68"/><polygon class="cls-9" points="0.34 27.48 8.31 22.45 21.44 29.24 21.44 31.23 8.31 24.44 8.31 26.22 0.34 31.25 0.34 27.48 0.34 27.48"/><polygon class="cls-10" points="0.34 20.28 8.31 15.25 21.44 22.04 21.44 24.03 8.31 17.25 8.31 19.02 0.34 24.05 0.34 20.28 0.34 20.28"/><polygon class="cls-11" points="0.34 41.87 8.31 36.84 21.44 43.63 21.44 45.63 8.31 38.84 8.31 40.62 0.34 45.64 0.34 41.87 0.34 41.87"/><polygon class="cls-12" points="45.92 34.68 53.88 29.65 67.02 36.43 67.02 38.43 53.88 31.64 53.88 33.42 45.92 38.45 45.92 34.68 45.92 34.68"/><polygon class="cls-13" points="45.92 27.48 53.88 22.45 67.02 29.24 67.02 31.23 53.88 24.44 53.88 26.22 45.92 31.25 45.92 27.48 45.92 27.48"/><polygon class="cls-14" points="45.92 20.28 53.88 15.25 67.02 22.04 67.02 24.03 53.88 17.25 53.88 19.02 45.92 24.05 45.92 20.28 45.92 20.28"/><polygon class="cls-15" points="45.92 13.08 53.88 8.06 67.02 14.84 67.02 16.84 53.88 10.05 53.88 11.83 45.92 16.85 45.92 13.08 45.92 13.08"/><polygon class="cls-16" points="45.92 41.87 53.88 36.84 67.02 43.63 67.02 45.63 53.88 38.84 53.88 40.62 45.92 45.64 45.92 41.87 45.92 41.87"/><polygon class="cls-17" points="90.25 34.68 82.29 29.65 69.15 36.43 69.15 38.43 82.29 31.64 82.29 33.42 90.25 38.45 90.25 34.68 90.25 34.68"/><polygon class="cls-18" points="90.25 27.48 82.29 22.45 69.15 29.24 69.15 31.23 82.29 24.44 82.29 26.22 90.25 31.25 90.25 27.48 90.25 27.48"/><polygon class="cls-19" points="90.25 41.87 82.29 36.84 69.15 43.63 69.15 45.63 82.29 38.84 82.29 40.62 90.25 45.64 90.25 41.87 90.25 41.87"/></svg>