<svg id="Layer_1" data-name="Layer 1" xmlns="http://www.w3.org/2000/svg" viewBox="0 0 55 55"><defs><style>.cls-1{fill:#fff;}</style></defs><path class="cls-1" d="M0,25.36a18.61,18.61,0,0,1,1.16-3.08,7,7,0,0,1,6-3.55c3.68-.09,7.37,0,11.06,0a1.09,1.09,0,0,1,1.19,1.05,1.11,1.11,0,0,1-1.26,1.09H7.91a5.42,5.42,0,0,0-5.76,5.73V42.42a5.42,5.42,0,0,0,5.68,5.71h6.39a1.57,1.57,0,0,1,1.25.58c.8.87,1.67,1.66,2.58,2.55,0-.63,0-1.21,0-1.79,0-.94.4-1.33,1.35-1.33,3.67,0,7.34,0,11,0a5.43,5.43,0,0,0,5.68-5.66V35.76a2.76,2.76,0,0,1,0-.64,1,1,0,0,1,2,0,1.91,1.91,0,0,1,0,.53c0,2.37,0,4.73,0,7.09a7.46,7.46,0,0,1-5.94,7.37,9.61,9.61,0,0,1-1.86.18H20.19v1.44c0,.61,0,1.22,0,1.83A1.39,1.39,0,0,1,19.44,55H18.8c-.36-.32-.73-.62-1.07-1-1.16-1.14-2.3-2.31-3.47-3.44a1.24,1.24,0,0,0-.78-.32c-2.09,0-4.18,0-6.27,0a7,7,0,0,1-6-3.57A18.4,18.4,0,0,1,0,43.62Z"/><path class="cls-1" d="M38.07,0a16.91,16.91,0,0,1,6.54.92A15.1,15.1,0,0,1,54.52,12c1.39,5.87-.26,11-4.64,15.12a1.91,1.91,0,0,0-.71,1.59c0,1.67,0,3.33,0,5a1.14,1.14,0,0,1-.65,1.23,1.18,1.18,0,0,1-1.39-.41L43.66,31a.7.7,0,0,0-.74-.23,23.76,23.76,0,0,1-10.48-.19,15,15,0,0,1-8.84-6.49,15,15,0,0,1-2.46-9.95A15.26,15.26,0,0,1,27,3.4,15.48,15.48,0,0,1,37.05,0ZM47,31.4a29.63,29.63,0,0,0,0-3,3,3,0,0,1,1.29-2.77,12.6,12.6,0,0,0,4.42-8.38,13,13,0,0,0-2.8-9.95,12.66,12.66,0,0,0-8.34-4.91,39.12,39.12,0,0,0-5-.22,12.41,12.41,0,0,0-5.46,1.18,13,13,0,0,0-7.77,10.28,13,13,0,0,0,4.92,12.51,12.62,12.62,0,0,0,7.85,2.91A21.43,21.43,0,0,0,43,28.57a1.46,1.46,0,0,1,1.64.44C45.41,29.79,46.18,30.53,47,31.4Z"/><path class="cls-1" d="M18.15,35.45H7.31a3.25,3.25,0,0,1-.54,0,1.06,1.06,0,0,1,0-2.11,4.87,4.87,0,0,1,.54,0h21.9c.87,0,1.39.41,1.39,1.08s-.52,1.07-1.39,1.07Z"/><path class="cls-1" d="M16.09,41.47H7.29a2.88,2.88,0,0,1-.59,0,1.05,1.05,0,0,1,0-2.08,2.08,2.08,0,0,1,.43,0H25c.86,0,1.37.43,1.34,1.11a1.08,1.08,0,0,1-1.21,1c-1.14,0-2.29,0-3.43,0Z"/><path class="cls-1" d="M14.77,27.29h7.36a3.13,3.13,0,0,1,.53,0,1.06,1.06,0,0,1,0,2.11,3.25,3.25,0,0,1-.54,0H7.2c-.87,0-1.39-.41-1.39-1.08s.52-1.07,1.39-1.07Z"/><path class="cls-1" d="M30.6,40.37a1.07,1.07,0,1,1-1.08-1A1.1,1.1,0,0,1,30.6,40.37Z"/><path class="cls-1" d="M37.26,17.6c0-.41,0-.83,0-1.24a2,2,0,0,1,1.36-1.86l.51-.17a2.39,2.39,0,0,0,1.55-2.69,2.42,2.42,0,0,0-2.43-2A2.37,2.37,0,0,0,36,11.77a4,4,0,0,1-.08.48,1,1,0,0,1-1.15.88,1.06,1.06,0,0,1-.94-1.06,4.61,4.61,0,0,1,3.13-4.31,4.54,4.54,0,0,1,5.93,4.56,4.44,4.44,0,0,1-2.93,4,.63.63,0,0,0-.52.76c0,.59,0,1.18,0,1.77a1.08,1.08,0,1,1-2.14,0c0-.41,0-.82,0-1.23Z"/><path class="cls-1" d="M39.39,23.22a1.09,1.09,0,0,1-1,1.08,1.07,1.07,0,0,1-1.09-1,1.08,1.08,0,0,1,1-1.09A1.1,1.1,0,0,1,39.39,23.22Z"/></svg>