<svg id="Layer_1" data-name="Layer 1" xmlns="http://www.w3.org/2000/svg" viewBox="0 0 55 55"><defs><style>.cls-1{fill:#fff;}</style></defs><path class="cls-1" d="M35,0a2.3,2.3,0,0,1,.44,2.56,1,1,0,0,1-.81.35A1,1,0,0,1,34,2.29a4.53,4.53,0,0,1,0-1.6c0-.25.34-.46.52-.69Z"/><path class="cls-1" d="M39.83,32.33c1.49-1.36,2.94-2.69,4.4-4,.74-.67,1.47-1.37,2.23-2a5.2,5.2,0,0,1,6.46-.16,2.6,2.6,0,0,1,.34,4q-5.46,5.51-11,11a10,10,0,0,1-4.82,2.34,42,42,0,0,1-11.34,1,19.31,19.31,0,0,0-3.32.09,6.81,6.81,0,0,0-4,2.58,2.85,2.85,0,0,1,.85,2.18,2.71,2.71,0,0,1-.83,1.81c-1,1-2,2-3,3a2.68,2.68,0,0,1-3.94,0q-5-5-10.06-10.06a2.68,2.68,0,0,1,0-4c1-1,2-2,3-3a2.58,2.58,0,0,1,3-.6.6.6,0,0,0,.71-.13c1.91-1.6,3.86-3.14,5.72-4.8C17,29.06,20.35,28.52,24,29.18c.8.14,1.57.45,2.38.62a17.33,17.33,0,0,0,2.94.48c2,.07,4.08,0,6.12,0A5.18,5.18,0,0,1,39.83,32.33ZM17.66,46c.21-.24.44-.56.72-.83a7.5,7.5,0,0,1,4.16-2.2,19.68,19.68,0,0,1,3.52-.12A43.8,43.8,0,0,0,36.47,42a9.13,9.13,0,0,0,4.72-2.15c3.6-3.57,7.17-7.16,10.75-10.74a1,1,0,0,0-.18-1.66,3.52,3.52,0,0,0-4.4.36c-2.14,1.95-4.28,3.91-6.43,5.85a.69.69,0,0,0-.26.73,2.78,2.78,0,0,1-3,3.56H23.07a3.85,3.85,0,0,1-.48,0,.8.8,0,0,1-.77-.76.79.79,0,0,1,.62-.89,3.11,3.11,0,0,1,.69-.06H37.79c.94,0,1.29-.38,1.22-1.32A3.19,3.19,0,0,0,35.8,32q-3.28,0-6.55,0a12.11,12.11,0,0,1-3.43-.55,19.61,19.61,0,0,0-3.71-.79,8.28,8.28,0,0,0-6.28,1.79L9.77,37.53c-.12.09-.26.16-.45.28ZM18,49.2a3.86,3.86,0,0,0-.49-.78q-5-5-10-10a1,1,0,0,0-1.59,0L3,41.3a1,1,0,0,0,0,1.55L13.09,52.91a1,1,0,0,0,1.51,0c1-1,2-2,3-3A3.22,3.22,0,0,0,18,49.2Z"/><path class="cls-1" d="M39.06,24.79a12.78,12.78,0,0,1-1.4-.47c-.73-.34-1.44-.73-2.14-1.12a1.45,1.45,0,0,0-1.53,0c-.68.38-1.39.74-2.08,1.1A3,3,0,0,1,27.5,21.2c.12-.78.26-1.56.4-2.33a1.55,1.55,0,0,0-.5-1.59c-.58-.52-1.11-1.07-1.66-1.61a2.85,2.85,0,0,1-.8-3.14,2.84,2.84,0,0,1,2.53-2l2.28-.33A1.51,1.51,0,0,0,31,9.24c.32-.69.67-1.38,1-2.07a3,3,0,0,1,5.48,0c.33.69.7,1.37,1,2.07a1.55,1.55,0,0,0,1.33.93c.79.09,1.56.2,2.34.33a2.85,2.85,0,0,1,2.41,2,2.83,2.83,0,0,1-.71,3c-.59.61-1.19,1.19-1.8,1.77a1.42,1.42,0,0,0-.47,1.45c.16.82.29,1.65.42,2.48A3.08,3.08,0,0,1,39.06,24.79ZM39,23a1.29,1.29,0,0,0,1.37-1.49c-.13-.83-.26-1.66-.42-2.49a3,3,0,0,1,.9-2.83l1.8-1.77a1.25,1.25,0,0,0-.7-2.18l-2.55-.39A3,3,0,0,1,37,10.1c-.34-.71-.7-1.41-1-2.12a1.31,1.31,0,0,0-1.23-.87,1.33,1.33,0,0,0-1.2.86c-.36.75-.73,1.51-1.11,2.25a2.91,2.91,0,0,1-2.21,1.61c-.87.14-1.73.27-2.6.39a1.22,1.22,0,0,0-1.07.85,1.26,1.26,0,0,0,.37,1.37c.6.57,1.18,1.15,1.77,1.72a3.05,3.05,0,0,1,.9,2.94c-.14.78-.26,1.55-.39,2.33a1.21,1.21,0,0,0,.49,1.32,1.23,1.23,0,0,0,1.41,0l2.14-1.12a3,3,0,0,1,3,0c.69.37,1.39.74,2.09,1.09A5.64,5.64,0,0,0,39,23Z"/><path class="cls-1" d="M47.9,8c0,.73-1.68,1.7-2.32,1.36a.82.82,0,0,1-.11-1.42,7.18,7.18,0,0,1,1.29-.74A.83.83,0,0,1,47.9,8Z"/><path class="cls-1" d="M42.89,2.76a18.18,18.18,0,0,1-1.26,1.8c-.13.14-.66.05-.92-.08a.69.69,0,0,1-.26-.94,10.45,10.45,0,0,1,.75-1.3A.7.7,0,0,1,42.15,2C42.42,2.13,42.6,2.44,42.89,2.76Z"/><path class="cls-1" d="M24.4,8.42c0,.78-.61,1.19-1.17.93A8.18,8.18,0,0,1,22,8.64a.79.79,0,0,1-.22-1.13.79.79,0,0,1,1.07-.32A7.84,7.84,0,0,1,24,7.88,2,2,0,0,1,24.4,8.42Z"/><path class="cls-1" d="M21.18,15.9c-.21,0-.43,0-.64,0a.85.85,0,0,1-.07-1.69,8.78,8.78,0,0,1,1.45,0,.83.83,0,0,1,.75.89.85.85,0,0,1-.85.8Z"/><path class="cls-1" d="M48.3,15.9c-.21,0-.43,0-.64,0a.84.84,0,0,1-.8-.85.8.8,0,0,1,.75-.84,6.93,6.93,0,0,1,1.44,0,.8.8,0,0,1,.75.84.84.84,0,0,1-.8.85C48.77,15.92,48.54,15.9,48.3,15.9Z"/><path class="cls-1" d="M29.33,3.85a5,5,0,0,1-.74.77.7.7,0,0,1-.95-.25,7.6,7.6,0,0,1-.75-1.29.69.69,0,0,1,.26-1c.26-.13.78-.22.91-.08A16.1,16.1,0,0,1,29.33,3.85Z"/></svg>