<svg id="Layer_1" data-name="Layer 1" xmlns="http://www.w3.org/2000/svg" viewBox="0 0 42 42"><defs><style>.cls-1{fill:#fff;}</style></defs><path class="cls-1" d="M0,39.13V24.69A2.14,2.14,0,0,1,2.48,23H4V17.59l-.35-.1A4.68,4.68,0,0,1,.21,14.24C.12,14,.07,13.72,0,13.46V10.92a1.38,1.38,0,0,0,.08-.27A4.75,4.75,0,0,1,5.43,6.84v4H8.12v-4a4.76,4.76,0,0,1,5.1,2.93A8,8,0,0,1,13.53,13a4.42,4.42,0,0,1-1.94,3.71,16.12,16.12,0,0,1-2.08,1V23h4a3.32,3.32,0,0,1,1-2.11c-.54-.51-1.07-1-1-1.82a1.73,1.73,0,0,1,1.36-1.48V6.69a2.81,2.81,0,0,1,0-.77,5.29,5.29,0,0,0,.37-1.15c0-.4-.33-.79-.37-1.2a21.53,21.53,0,0,1,0-2.41A1.29,1.29,0,0,1,16.22,0h1.36A1.34,1.34,0,0,1,19,1.38c0,.45,0,.9,0,1.35a3.43,3.43,0,0,1-.38,1.86.47.47,0,0,0,0,.33A3.42,3.42,0,0,1,19,6.67V17.6l.21.1a1.62,1.62,0,0,1,.61,2.77,4.86,4.86,0,0,1-.53.38A3.39,3.39,0,0,1,20.34,23H23v-.47c0-1.16,0-2.32,0-3.48a.8.8,0,0,0-.45-.81,4.7,4.7,0,0,1-1.94-5.78,4.74,4.74,0,1,1,6.79,5.83.62.62,0,0,0-.37.64c0,1.2,0,2.41,0,3.61V23H29.8V17.08a2,2,0,0,1,1.13-1.94.43.43,0,0,0,.24-.46c0-1.53,0-3.06,0-4.59a3.1,3.1,0,0,0-1.93-3,3,3,0,0,0-3.42.59,1.61,1.61,0,0,1-2.34,0,1.63,1.63,0,0,1,.13-2.35,8.43,8.43,0,0,1,5.72-2.51c2.85-.08,5.71,0,8.58,0A1.08,1.08,0,0,0,38,2.52a1.31,1.31,0,0,1,1.34-1.15c.48,0,1,0,1.43,0A1.3,1.3,0,0,1,42,2.69q0,3.42,0,6.84a1.32,1.32,0,0,1-1.32,1.31c-.48,0-1,0-1.43,0A1.33,1.33,0,0,1,38,9.88c0-.14-.06-.29-.09-.43L37,9.5a1.71,1.71,0,0,0-1.78,1.74c0,1.18,0,2.35,0,3.53a.49.49,0,0,0,.2.34,2.1,2.1,0,0,1,1.15,2c0,1.81,0,3.63,0,5.45V23H40a2,2,0,0,1,2,2q0,6.81,0,13.61a3.14,3.14,0,0,1-1.39,2.66,10.32,10.32,0,0,1-1.47.67H2.87a2.67,2.67,0,0,0-.26-.09A3.4,3.4,0,0,1,.2,39.74C.12,39.54.07,39.33,0,39.13Zm28.45-8c0,.66,0,1.28,0,1.89a3.4,3.4,0,0,1-3.52,3.51c-2.63,0-5.25,0-7.88,0a3.4,3.4,0,0,1-3.51-3.52V31.2H1.36v.43c0,2.25,0,4.49,0,6.73a2,2,0,0,0,2.28,2.28H38.37a2,2,0,0,0,2.27-2.26V31.62c0-.14,0-.29,0-.44ZM4.08,8.2A3.21,3.21,0,0,0,1.5,10.64a9.71,9.71,0,0,0-.12,2.41,3.32,3.32,0,0,0,3.34,3.2h.71v10.8H8.14V16.25c.27,0,.49,0,.7,0a3.23,3.23,0,0,0,3.23-2.62,9,9,0,0,0,0-2.88,3.08,3.08,0,0,0-2.6-2.5v3.93H4.08Zm31.1,18.87a.69.69,0,0,0,0-.16c0-3.3,0-6.61,0-9.91,0-.5-.26-.74-.78-.74-.78,0-1.56,0-2.33,0s-.94.21-.94.92v9.89ZM33.87,10.82c.43-1.38.91-2.05,1.87-2.41a6.22,6.22,0,0,1,1.56-.27c.49-.05.63-.16.63-.65V4.83c0-.62-.12-.75-.73-.75H29.86a7.46,7.46,0,0,0-5.18,2,1,1,0,0,0-.24.27.39.39,0,0,0,0,.3.36.36,0,0,0,.29.07A.75.75,0,0,0,25,6.55a4.24,4.24,0,0,1,4.7-.74,4.36,4.36,0,0,1,2.77,4c0,.34,0,.68,0,1ZM25.75,27.07v-.48c0-2.71,0-5.43,0-8.15a1,1,0,0,1,.72-1.16,3.29,3.29,0,0,0,1.85-4,3.39,3.39,0,1,0-4.44,4.14.68.68,0,0,1,.53.78c0,2.8,0,5.6,0,8.4v.51ZM14.91,31.7c0,.52,0,1,0,1.55a2,2,0,0,0,1.92,2c2.77,0,5.54,0,8.31,0A1.85,1.85,0,0,0,27,33.7a13,13,0,0,0,0-2.08,1.58,1.58,0,0,1-1.64.9q-4.41,0-8.81,0A1.77,1.77,0,0,1,14.91,31.7Zm1.36-.56h9.45V28.49H16.27ZM19,27.07v-.46c0-1.24,0-2.49,0-3.73a1.25,1.25,0,0,0-1.4-1.21c-.43,0-.87,0-1.31,0a.94.94,0,0,0-1,.55,2.75,2.75,0,0,0-.29,1c0,1,0,1.91,0,2.87v.94ZM1.37,29.77H14.88V28.48H1.37Zm39.25-1.29H27.11v1.29H40.62Zm-23-10.87c0-.16,0-.28,0-.4V6.57A3.17,3.17,0,0,0,17.55,6c-.08-.31-.18-.55-.62-.55s-.53.24-.61.55a3.69,3.69,0,0,0-.07.65V17.17c0,.15,0,.29,0,.44Zm-4.08,6.8h-4v2.66h4ZM36.6,27.07h4c0-.72,0-1.41,0-2.1a.58.58,0,0,0-.6-.57c-1.13,0-2.26,0-3.42,0ZM39.31,9.49a8.94,8.94,0,0,1,.9,0c.34,0,.44-.09.44-.43,0-2,0-4,0-6,0-.11,0-.23,0-.36h-1.3ZM23,27.07V24.4H20.36v2.67Zm6.76-2.66H27.11v2.65h2.66ZM4,27.07V24.39c-.71,0-1.39,0-2.07,0a.57.57,0,0,0-.59.57c0,.69,0,1.38,0,2.1ZM17,19c-.56,0-1.12,0-1.68,0a.48.48,0,0,0-.35.2c0,.08,0,.26.12.35a1.66,1.66,0,0,0,1.76.81H17a1.59,1.59,0,0,0,1.69-.71l.05-.06c.06-.14.17-.3.13-.42s-.23-.16-.36-.17C18,19,17.5,19,17,19Zm16.87-4.07V12.24H32.53v2.65ZM17.56,1.41H16.22c0,.73,0,1.42.1,2.11a.56.56,0,0,0,.64.57c.44,0,.56-.28.58-.58C17.58,2.82,17.56,2.13,17.56,1.41Z"/><path class="cls-1" d="M27.08,14.23a2,2,0,1,1-2-2A2,2,0,0,1,27.08,14.23Zm-2-.68a.68.68,0,0,0,0,1.36.7.7,0,0,0,.67-.69A.71.71,0,0,0,25.05,13.55Z"/></svg>