<svg id="Layer_1" data-name="Layer 1" xmlns="http://www.w3.org/2000/svg" xmlns:xlink="http://www.w3.org/1999/xlink" viewBox="0 0 48 48"><defs><style>.cls-1{fill:url(#linear-gradient);}.cls-2{fill:url(#linear-gradient-2);}.cls-3{fill:url(#linear-gradient-3);}</style><linearGradient id="linear-gradient" x1="0.02" y1="25.36" x2="45.11" y2="25.36" gradientUnits="userSpaceOnUse"><stop offset="0" stop-color="#e44d26"/><stop offset="1" stop-color="#f16529"/></linearGradient><linearGradient id="linear-gradient-2" x1="25.23" y1="11.37" x2="47.98" y2="11.37" xlink:href="#linear-gradient"/><linearGradient id="linear-gradient-3" x1="24.85" y1="15.94" x2="39.29" y2="15.94" xlink:href="#linear-gradient"/></defs><path class="cls-1" d="M0,13.22c.07-.56.11-1.12.22-1.67A7,7,0,0,1,2.09,8C3.38,6.67,4.62,5.3,6,4.09a4.41,4.41,0,0,1,6.44.08c2.16,2,4.24,4.16,6.26,6.33a4.27,4.27,0,0,1,0,5.74c-1.08,1.23-2.27,2.36-3.43,3.52a.47.47,0,0,0-.12.67,26.27,26.27,0,0,0,4.58,6.25,31.64,31.64,0,0,0,6.07,5.12c.64.41,1.33.75,2,1.14.88-.88,1.71-1.77,2.59-2.6a11.25,11.25,0,0,1,2.07-1.66,4.1,4.1,0,0,1,4.88.6c2.21,2.13,4.4,4.3,6.5,6.54A4.36,4.36,0,0,1,44,41.73c-1.33,1.51-2.75,2.94-4.2,4.35a6.83,6.83,0,0,1-4,1.83l-.31.09H33.68l-.31-.08c-1-.19-2-.3-3-.56a35.15,35.15,0,0,1-9.78-4.49A48.79,48.79,0,0,1,2.91,23.48,27.58,27.58,0,0,1,.35,16.32c-.16-.8-.22-1.63-.33-2.45Zm2.76.4c.05.54.1,1.09.16,1.63a5.88,5.88,0,0,0,.14.73A30.09,30.09,0,0,0,7,25.21,45.9,45.9,0,0,0,26,42.79a22.11,22.11,0,0,0,7.86,2.45,5.18,5.18,0,0,0,4.47-1.54c1-1.06,2-2.1,3.08-3.15.15-.16.3-.32.43-.49a1.83,1.83,0,0,0-.07-2.56c-.73-.8-1.52-1.56-2.29-2.34-1.2-1.2-2.4-2.41-3.62-3.61a1.81,1.81,0,0,0-2.74-.05l-.41.39C31.67,33,30.61,34,29.53,35.1a2,2,0,0,1-2.49.48c-.9-.46-1.8-.93-2.66-1.47a35.15,35.15,0,0,1-7.72-6.78,24.87,24.87,0,0,1-4-5.82c-.86-1.82-.74-2.32.72-3.73,1.05-1,2.09-2,3.08-3.08a1.75,1.75,0,0,0,0-2.63c-.09-.11-.18-.22-.28-.32L10.76,6.28a3.11,3.11,0,0,0-.7-.54,1.94,1.94,0,0,0-2.44.57c-1,1-2,2.07-3.09,3.07A5.3,5.3,0,0,0,2.78,13.62Z"/><path class="cls-2" d="M26.7,0c.57.12,1.27.23,1.95.4A25.75,25.75,0,0,1,39.7,6.27a25.34,25.34,0,0,1,7.19,10.79,39.81,39.81,0,0,1,1,4.07,1.28,1.28,0,0,1-1,1.58,1.32,1.32,0,0,1-1.59-1c-.22-.77-.35-1.55-.56-2.32A22.75,22.75,0,0,0,36.2,6.93a22.34,22.34,0,0,0-9.34-4.12,4.81,4.81,0,0,1-.77-.19,1.36,1.36,0,0,1-.84-1.51A1.41,1.41,0,0,1,26.7,0Z"/><path class="cls-3" d="M26.34,8.71a13.87,13.87,0,0,1,3.75,1.12,15.64,15.64,0,0,1,9.17,11.61,1.37,1.37,0,1,1-2.66.65,24.43,24.43,0,0,0-1-3.08,12.81,12.81,0,0,0-9.55-7.57,1.36,1.36,0,0,1-1.25-1.34A1.38,1.38,0,0,1,26.34,8.71Z"/></svg>