<svg id="Layer_1" data-name="Layer 1" xmlns="http://www.w3.org/2000/svg" viewBox="0 0 42 42"><defs><style>.cls-1{fill:#fff;}</style></defs><path class="cls-1" d="M8.37,23.38c-.25,0-.46,0-.66,0A1.47,1.47,0,0,1,6.23,22a8.15,8.15,0,0,1,0-1.21A1.5,1.5,0,0,1,7.74,19.3c.5,0,1,0,1.54,0,0-.14.09-.26.12-.38a3.47,3.47,0,0,1,3.26-2.55.79.79,0,0,0,.51-.22A3.41,3.41,0,0,1,16.5,15a.5.5,0,0,0,.57-.22,4.07,4.07,0,0,1,6.88.9c.11.22.19.36.49.38a3.38,3.38,0,0,1,3.16,2.81c.06.39.2.48.55.44.18,0,.37,0,.62,0V2A1.88,1.88,0,0,1,31.23.1a1.74,1.74,0,0,1,1.29,1.54,5.31,5.31,0,0,1,0,.69V31.17h.56c2.11,0,4.21,0,6.32,0a2,2,0,0,1,2,2.75,2,2,0,0,1-1.06,1.15.34.34,0,0,0-.24.43A14.38,14.38,0,0,0,41.82,41c.36.61.15,1-.56,1h-30a1.48,1.48,0,0,1-1.57-1.5q-.46-6.15-.94-12.29c-.1-1.33-.19-2.66-.29-4C8.43,24,8.4,23.7,8.37,23.38Zm1.07,0c.12,1.63.23,3.21.35,4.78l.93,12.15c0,.53.12.62.66.62h7.8a.54.54,0,0,0,.56-.34,15.31,15.31,0,0,0,1.5-5.2.39.39,0,0,0-.18-.31,2.06,2.06,0,0,1,1-3.94h4.84c.19-2.58.38-5.1.56-7.62a.27.27,0,0,0,0-.14h-5.6c0,.75,0,1.47,0,2.19A2,2,0,0,1,20,27.75a6,6,0,0,1-1.31-.12c0,.6,0,1.25,0,1.9a2.07,2.07,0,0,1-4.11.34l-.09-.42a2.15,2.15,0,0,1-3.07-2.22c.08-1.12,0-2.24,0-3.36,0-.15,0-.3,0-.47ZM31.86,40.93c0-.16,0-.3,0-.44,0-.61,0-1.22,0-1.83a.49.49,0,0,1,.48-.56c.35,0,.53.2.55.54a3.81,3.81,0,0,1,0,.48v1.8h2.43V38.64a.48.48,0,0,1,.5-.54.49.49,0,0,1,.53.51,3.2,3.2,0,0,1,0,.44v1.88h4.12a.43.43,0,0,0,0-.15,15.9,15.9,0,0,1-1.42-5c0-.4-.17-.52-.57-.52-5.23,0-10.46,0-15.68,0h-.49a17.11,17.11,0,0,1-1.57,5.66h4.17v-.49c0-.6,0-1.21,0-1.82a.5.5,0,0,1,.49-.52.47.47,0,0,1,.54.44,1.77,1.77,0,0,1,0,.4v2h2.44c0-.78,0-1.52,0-2.26,0-.46.43-.74.76-.48a.88.88,0,0,1,.27.58c0,.72,0,1.44,0,2.17Zm-11-20.56H12.52v5.55c0,.58,0,1.16,0,1.74a1,1,0,0,0,1.25.93,1,1,0,0,0,.78-1c0-.91,0-1.82,0-2.74,0-.35.16-.6.54-.59s.5.25.5.58v.35c0,1.4,0,2.79,0,4.18a1.05,1.05,0,0,0,1,1.17c.66,0,1.09-.43,1.09-1.18V22.06c0-.42.2-.65.54-.63s.51.27.51.62v3.57a1,1,0,1,0,2.06,0c0-1.06,0-2.12,0-3.17Zm9,10.77h1.69V2.22a2.58,2.58,0,0,0,0-.48.77.77,0,0,0-.74-.68.78.78,0,0,0-.87.57,2.39,2.39,0,0,0-.05.6V31.14ZM10.44,19.27H26.6a4.12,4.12,0,0,0-.08-.45,2.38,2.38,0,0,0-2.41-1.74c-.76,0-.75,0-1-.67a3,3,0,0,0-5.46-.66c-.35.53-.42.57-1,.36a2.27,2.27,0,0,0-2.65.75,1.26,1.26,0,0,1-1.26.58A2.23,2.23,0,0,0,10.44,19.27ZM30.68,32.21H22.27a4.52,4.52,0,0,0-.52,0,1,1,0,0,0-.88.93,1,1,0,0,0,.73,1,2.4,2.4,0,0,0,.6.06H39.14a2.24,2.24,0,0,0,.52,0,1,1,0,0,0,.78-1.09c0-.57-.47-.89-1.18-.89ZM28.75,20.37H21.88V22.3h6.87Zm-17.31,2V20.39l-.12,0H8.63c-1.48,0-1.37-.08-1.36,1.47,0,0,0,.07,0,.08s.29.42.45.42C9,22.35,10.19,22.33,11.44,22.33Zm17.29,8.81V23.41h-.17L28,31.14Z"/><path class="cls-1" d="M0,34V27.49a2.64,2.64,0,0,1,1.88-2.71.36.36,0,0,0,.28-.41q0-1.15,0-2.31c0-.53.16-.69.7-.7H5.22c.56,0,.71.17.72.74,0,.76,0,1.51,0,2.27a.38.38,0,0,0,.31.42A2.65,2.65,0,0,1,8.1,27.4V40.68A1.19,1.19,0,0,1,6.77,42H1.33A1.18,1.18,0,0,1,0,40.68ZM7,37V29.6H1.08V37ZM1.07,41H6.84c.07,0,.2-.11.2-.17,0-.87,0-1.75,0-2.64h-6ZM7,28.5c0-.47,0-.89,0-1.31A1.6,1.6,0,0,0,5.41,25.7H2.66a1.5,1.5,0,0,0-1.49,1.06A11.14,11.14,0,0,0,1,28.5ZM3.25,22.43v2.19H4.86V22.43Z"/></svg>