<svg id="Layer_1" data-name="Layer 1" xmlns="http://www.w3.org/2000/svg" viewBox="0 0 42 42"><defs><style>.cls-1{fill:#fff;}</style></defs><path class="cls-1" d="M12.71,0c.49.43.51.61.2,1.19a18.65,18.65,0,0,0-1.9,6c-.24,1.57-.34,3.15-.49,4.73a4.77,4.77,0,0,0,0,.54h.67c.16-1,.28-2,.47-2.94a18.67,18.67,0,0,1,2.22-6.3,7,7,0,0,1,.72-1,.63.63,0,0,1,.91-.09.64.64,0,0,1,.09.92A14.79,14.79,0,0,0,13,9.23c-.2.95-.31,1.92-.47,2.87a.43.43,0,0,0,.21.5,1,1,0,0,1,.33.68c0,1.24,0,2.48,0,3.78h.62a.66.66,0,0,1,.69.7,2.81,2.81,0,0,1,0,.29V41c0,.81-.17,1-1,1H6.15c-.7,0-.9-.2-.9-.9q0-11.47,0-23c0-.93.13-1.06,1.06-1.08h.26V16c0-.83,0-1.67,0-2.5,0-.47.07-.85.6-1A22.06,22.06,0,0,0,4.73,4a8.33,8.33,0,0,0-.54-.78c-.32-.42-.33-.78,0-1s.71-.2,1.06.23A11.72,11.72,0,0,1,6.89,5.41a27.39,27.39,0,0,1,1.55,6.8c0,.07,0,.14,0,.23h.7c0-.56,0-1.12-.07-1.69a26.59,26.59,0,0,0-1.64-8,15,15,0,0,0-.7-1.53C6.46.6,6.48.44,7,0h.49a11,11,0,0,1,.8,1.25c.33.68.59,1.39.92,2.19,0-.9,0-1.7,0-2.49A1,1,0,0,1,9.59,0h.49a1,1,0,0,1,.42,1c0,.79,0,1.59,0,2.45.38-.88.71-1.69,1.08-2.48A6.39,6.39,0,0,1,12.22,0Zm.41,18.85c-.07,0-.1,0-.12,0L6.74,22c-.07,0-.17.12-.17.19,0,.77,0,1.54,0,2.36L13,21.33a.41.41,0,0,0,.16-.29C13.13,20.32,13.12,19.6,13.12,18.85ZM6.56,28.47c2.18-1.09,4.29-2.14,6.39-3.21a.33.33,0,0,0,.16-.24c0-.75,0-1.49,0-2.24H13q-3.13,1.56-6.26,3.13a.38.38,0,0,0-.17.27C6.55,26.93,6.56,27.66,6.56,28.47Zm6.56-1.76c-.07,0-.12,0-.15,0L6.75,29.85c-.08,0-.18.15-.18.22,0,.76,0,1.52,0,2.34L13,29.19a.27.27,0,0,0,.13-.22C13.12,28.22,13.12,27.48,13.12,26.71ZM6.56,36.28h.11q3.14-1.56,6.26-3.13a.34.34,0,0,0,.18-.23c0-.75,0-1.51,0-2.32L6.73,33.8a.33.33,0,0,0-.16.24C6.55,34.79,6.56,35.53,6.56,36.28Zm6.56-1.75-6.4,3.21a.35.35,0,0,0-.15.24c0,.75,0,1.49,0,2.22l.08,0,6.29-3.14a.38.38,0,0,0,.18-.28C13.13,36.08,13.12,35.34,13.12,34.53ZM7.9,13.8V17h3.89V13.8ZM6.58,18.39v2.19l4.25-2.12,0-.07ZM13.1,40.67V38.48L8.85,40.61l0,.06Z"/><path class="cls-1" d="M21.24,0a1,1,0,0,1,.42,1q0,5.19,0,10.37v.49h.51c.56,0,.8.24.8.8,0,1.34,0,2.68,0,4v.43h.44c.67,0,.87.22.88.89V41c0,.83-.17,1-1,1H18.55c-.61,0-.84-.23-.84-.84V17.91c0-.62.23-.84.84-.85H19v-2.4c0-.66,0-1.31,0-2s.21-.87.88-.88h.43v-.49q0-5.18,0-10.37A1,1,0,0,1,20.75,0ZM19.05,18.39V40.65h3.89V18.39Zm1.32-5.25V17h1.26V13.14Z"/><path class="cls-1" d="M30.43,0a1.29,1.29,0,0,1,.17.16.64.64,0,0,1,0,.94.63.63,0,0,1-.94,0,.64.64,0,0,1,.05-.94L29.94,0Z"/><path class="cls-1" d="M33.05,0l.18.16a.64.64,0,0,1,.05.94.64.64,0,0,1-1,0,.64.64,0,0,1,.06-.94A1.29,1.29,0,0,1,32.56,0Z"/><path class="cls-1" d="M35.68,0a1.29,1.29,0,0,1,.17.16.64.64,0,0,1,0,.94.63.63,0,0,1-.94,0,.64.64,0,0,1,0-.94L35.19,0Z"/><path class="cls-1" d="M36.09,12.44c.55.11.67.48.66,1,0,1.2,0,2.4,0,3.65h.63a.64.64,0,0,1,.68.66c0,.11,0,.22,0,.33V41c0,.84-.17,1-1,1H28.53c-.79,0-1-.18-1-1V18.12c0-.91.13-1,1-1.06h.28v-3.7c0-.58.09-.7.66-.92V3.59a2.28,2.28,0,0,1,0-.37.64.64,0,0,1,.64-.59.64.64,0,0,1,.66.59c0,.21,0,.41,0,.62v8.6h1.31V8.07c0-.55.25-.86.67-.85s.64.31.64.83v4.4h1.32V3.61a1.86,1.86,0,0,1,0-.41.62.62,0,0,1,.64-.57.63.63,0,0,1,.65.57,2.77,2.77,0,0,1,0,.41v8.83Zm-7.19,6V40.65h7.82V18.39ZM30.2,17h5.2V13.8H30.2Z"/><path class="cls-1" d="M33.46,4.29c0,.31,0,.63,0,.94a.65.65,0,0,1-.64.67.64.64,0,0,1-.66-.68q0-1,0-1.92a.64.64,0,0,1,.63-.67.65.65,0,0,1,.67.68C33.47,3.63,33.46,4,33.46,4.29Z"/><path class="cls-1" d="M20.34,28.51c0-1.56,0-3.12,0-4.68,0-.2,0-.46.14-.57a1,1,0,0,1,.67-.25.58.58,0,0,1,.5.61c0,.52,0,1,0,1.56v8.25a.65.65,0,0,1-.66.69.65.65,0,0,1-.65-.69c0-1,0-2,0-3Z"/><path class="cls-1" d="M21,21.65a.65.65,0,1,1,.66-.65A.66.66,0,0,1,21,21.65Z"/><path class="cls-1" d="M31.49,25.27c0,1.59,0,3.19,0,4.79,0,.45-.21.73-.57.78a.68.68,0,0,1-.74-.74V27.77q0-3.61,0-7.22a.87.87,0,0,1,.16-.6,1,1,0,0,1,.69-.21c.33.05.46.35.46.69,0,1.14,0,2.29,0,3.44Z"/><path class="cls-1" d="M30.81,33.46a.65.65,0,0,1,.06-1.3.66.66,0,0,1,.62.68A.66.66,0,0,1,30.81,33.46Z"/></svg>