<svg id="Layer_1" data-name="Layer 1" xmlns="http://www.w3.org/2000/svg" xmlns:xlink="http://www.w3.org/1999/xlink" viewBox="0 0 48 48"><defs><style>.cls-1{fill:url(#linear-gradient);}.cls-2{fill:url(#linear-gradient-2);}</style><linearGradient id="linear-gradient" y1="24" x2="48" y2="24" gradientUnits="userSpaceOnUse"><stop offset="0" stop-color="#e44d26"/><stop offset="1" stop-color="#f16529"/></linearGradient><linearGradient id="linear-gradient-2" x1="14.24" y1="17.98" x2="33.58" y2="17.98" xlink:href="#linear-gradient"/></defs><path class="cls-1" d="M48,15.65V46c-.52,1.62-1.58,2-3,2-9,0-18,0-27.07,0H2.52A2.38,2.38,0,0,1,0,45.54Q0,30.81,0,16.07a.89.89,0,0,1,.45-.81c2.14-1.51,4.27-3,6.42-4.53a.75.75,0,0,0,.35-.7c0-1.34,0-2.69,0-4a1.79,1.79,0,0,1,2-2c2.14.06,4.28,0,6.42,0A2.11,2.11,0,0,0,17,3.57C18.1,2.74,19.24,2,20.37,1.14A7.5,7.5,0,0,1,23.25,0h1.5A.83.83,0,0,0,25,.08a6.19,6.19,0,0,1,2.78,1.14c1.18.84,2.36,1.7,3.55,2.52a1.69,1.69,0,0,0,.82.26C34.41,4,36.71,4,39,4a1.62,1.62,0,0,1,1.79,1.8c0,1.39,0,2.78,0,4.17a.8.8,0,0,0,.39.77c2,1.42,4,2.86,6.07,4.3C47.5,15.24,47.74,15.45,48,15.65ZM8.83,5.63c0,.11,0,.18,0,.26q0,7.71,0,15.41a.77.77,0,0,0,.24.51Q15,26.75,20.91,31.66a4.76,4.76,0,0,0,6.13,0c.51-.4,1-.83,1.51-1.25l10.28-8.53a.91.91,0,0,0,.37-.78q0-7.5,0-15V5.63ZM3.05,46.37H45c-5.56-4.63-11-9.18-16.5-13.71-3,2.33-6,2.31-8.91,0ZM18.33,31.59,1.64,17.73V45.45ZM46.38,17.71,29.68,31.59l16.7,13.88ZM40.8,20.27l5.08-4.22L40.8,12.44Zm-33.61,0V12.46L2.12,16.05ZM28.69,4l.07-.12c-.93-.61-1.83-1.29-2.81-1.81a4.12,4.12,0,0,0-3.4-.2,7.43,7.43,0,0,0-1.48.77c-.62.4-1.2.86-1.91,1.36Z"/><path class="cls-2" d="M25.65,21.65A5.26,5.26,0,0,1,22.8,23a3.65,3.65,0,0,1-4.23-3.37,6.93,6.93,0,0,1,3.59-6.47,3.76,3.76,0,0,1,4.33.7,4.46,4.46,0,0,1,.35.44c.07-.3.11-.48.14-.65.13-.56.48-.85.93-.77a.82.82,0,0,1,.64,1.06q-.68,3.26-1.37,6.5c-.15.67,0,.92.73.95a2.38,2.38,0,0,0,2-.87,5.89,5.89,0,0,0,1-6.07A5.75,5.75,0,0,0,26.3,10.5a9.24,9.24,0,0,0-10.21,6.42,6.46,6.46,0,0,0,4.35,8,14.06,14.06,0,0,0,7.53.34,7.61,7.61,0,0,0,4.13-2.51.82.82,0,0,1,1-.28.71.71,0,0,1,.41.89,1.17,1.17,0,0,1-.28.48,9.31,9.31,0,0,1-5.61,3.12,15.29,15.29,0,0,1-8.34-.74,8,8,0,0,1-4.1-11.33,10.67,10.67,0,0,1,8.17-6c4-.58,7.27,1,8.8,4.38a7.46,7.46,0,0,1-1,8.26A3.89,3.89,0,0,1,28.37,23,2.52,2.52,0,0,1,25.65,21.65Zm-3.36-.21a3.31,3.31,0,0,0,2.13-.85,4.93,4.93,0,0,0,1.84-3.3,1.75,1.75,0,0,0,0-.72,6.65,6.65,0,0,0-.81-1.45,2.07,2.07,0,0,0-2.54-.55,5.34,5.34,0,0,0-2.75,4.94A2,2,0,0,0,22.29,21.44Z"/></svg>