<svg id="Layer_1" data-name="Layer 1" xmlns="http://www.w3.org/2000/svg" viewBox="0 0 55 55"><defs><style>.cls-1{fill:#fff;}</style></defs><path class="cls-1" d="M55,28.94c-.25,1.24-.51,2.48-.74,3.72-.34,1.74-.65,3.48-1,5.22A1.14,1.14,0,0,1,52,39H50.35c-1.18,3.13-3,4.6-5.68,4.59S40.15,42,39,39h-.5c-4.3,0-8.59,0-12.89,0-.42,0-.57.13-.69.53a5.71,5.71,0,0,1-11-.07.52.52,0,0,0-.63-.45c-1,0-1.94,0-2.9,0a1.15,1.15,0,1,1,0-2.28h3.38c.09-.29.16-.54.26-.79a5.76,5.76,0,0,1,5.45-3.79,5.68,5.68,0,0,1,5.38,4,.64.64,0,0,0,.76.56c1.79,0,3.58,0,5.45,0,1.74-7.61,3.48-15.22,5.23-22.91H10.84a3.55,3.55,0,0,1-.8-.06,1.1,1.1,0,0,1-.87-1.08,1.11,1.11,0,0,1,.86-1.1,2.64,2.64,0,0,1,.63-.06q13.41,0,26.8,0c1.21,0,1.67.57,1.4,1.74-.38,1.69-.77,3.37-1.17,5.13h.69c2.43,0,4.87-.06,7.3.09a10.23,10.23,0,0,1,9.21,8.71,4.36,4.36,0,0,0,.11.52ZM37.18,20.67l-3.64,16H39c1.21-3.11,3-4.57,5.66-4.57s4.43,1.45,5.65,4.56h.85c.35-1.84.69-3.65,1-5.46a16.12,16.12,0,0,0,.49-3.06,7.88,7.88,0,0,0-7.23-7.43C42.74,20.57,40,20.67,37.18,20.67Zm7.5,13.72a3.44,3.44,0,1,0,3.44,3.43A3.43,3.43,0,0,0,44.68,34.39ZM22.89,37.88a3.41,3.41,0,1,0-6.82-.13,3.41,3.41,0,1,0,6.82.13Z"/><path class="cls-1" d="M8,32.08c-2.26,0-4.51,0-6.76,0A1.13,1.13,0,0,1,.1,30.52a1.17,1.17,0,0,1,1.2-.73H14.71a1.17,1.17,0,0,1,1.3.89,1.13,1.13,0,0,1-1.21,1.38C12.54,32.09,10.29,32.08,8,32.08Z"/><path class="cls-1" d="M9.17,25.2c-1.8,0-3.61,0-5.42,0a2.65,2.65,0,0,1-.69-.06A1.14,1.14,0,0,1,2.3,24a1.15,1.15,0,0,1,1-1.08,2.23,2.23,0,0,1,.37,0H14.69a1.21,1.21,0,0,1,1.21.63,1.12,1.12,0,0,1-1,1.65c-1.36,0-2.73,0-4.09,0C10.25,25.21,9.71,25.2,9.17,25.2Z"/><path class="cls-1" d="M10.29,18.33H5.94c-.85,0-1.33-.42-1.34-1.13S5.1,16.05,6,16.05c2.93,0,5.87,0,8.8,0a1.15,1.15,0,0,1,1.11,1.72,1.19,1.19,0,0,1-1.14.56Z"/></svg>