<svg id="Layer_1" data-name="Layer 1" xmlns="http://www.w3.org/2000/svg" xmlns:xlink="http://www.w3.org/1999/xlink" viewBox="0 0 180 180"><defs><style>.cls-1{fill:#fff;}.cls-10,.cls-11,.cls-12,.cls-13,.cls-14,.cls-15,.cls-16,.cls-17,.cls-18,.cls-19,.cls-2,.cls-3,.cls-4,.cls-5,.cls-6,.cls-7,.cls-8,.cls-9{fill-rule:evenodd;}.cls-2{fill:url(#linear-gradient);}.cls-3{fill:url(#linear-gradient-2);}.cls-4{fill:url(#linear-gradient-3);}.cls-5{fill:url(#linear-gradient-4);}.cls-6{fill:url(#linear-gradient-5);}.cls-7{fill:url(#linear-gradient-6);}.cls-8{fill:url(#linear-gradient-7);}.cls-9{fill:url(#linear-gradient-8);}.cls-10{fill:url(#linear-gradient-9);}.cls-11{fill:url(#linear-gradient-10);}.cls-12{fill:url(#linear-gradient-11);}.cls-13{fill:url(#linear-gradient-12);}.cls-14{fill:url(#linear-gradient-13);}.cls-15{fill:url(#linear-gradient-14);}.cls-16{fill:url(#linear-gradient-15);}.cls-17{fill:url(#linear-gradient-16);}.cls-18{fill:url(#linear-gradient-17);}.cls-19{fill:url(#linear-gradient-18);}</style><linearGradient id="linear-gradient" x1="5568.4" y1="104.48" x2="5597.12" y2="104.48" gradientTransform="matrix(-1, 0, 0, 1, 5657.55, 0)" gradientUnits="userSpaceOnUse"><stop offset="0" stop-color="#f16529"/><stop offset="1" stop-color="#e44d26"/></linearGradient><linearGradient id="linear-gradient-2" x1="5568.4" y1="94.68" x2="5597.12" y2="94.68" xlink:href="#linear-gradient"/><linearGradient id="linear-gradient-3" x1="5568.4" y1="84.88" x2="5597.12" y2="84.88" xlink:href="#linear-gradient"/><linearGradient id="linear-gradient-4" x1="5568.4" y1="75.08" x2="5597.12" y2="75.08" xlink:href="#linear-gradient"/><linearGradient id="linear-gradient-5" x1="5568.4" y1="114.27" x2="5597.12" y2="114.27" xlink:href="#linear-gradient"/><linearGradient id="linear-gradient-6" x1="5568.4" y1="65.73" x2="5597.12" y2="65.73" xlink:href="#linear-gradient"/><linearGradient id="linear-gradient-7" x1="28.79" y1="104.48" x2="57.52" y2="104.48" gradientUnits="userSpaceOnUse"><stop offset="0" stop-color="#e44d26"/><stop offset="1" stop-color="#f16529"/></linearGradient><linearGradient id="linear-gradient-8" x1="28.79" y1="94.68" x2="57.52" y2="94.68" xlink:href="#linear-gradient-7"/><linearGradient id="linear-gradient-9" x1="28.79" y1="84.88" x2="57.52" y2="84.88" xlink:href="#linear-gradient-7"/><linearGradient id="linear-gradient-10" x1="28.79" y1="114.27" x2="57.52" y2="114.27" xlink:href="#linear-gradient-7"/><linearGradient id="linear-gradient-11" x1="90.85" y1="104.48" x2="119.57" y2="104.48" xlink:href="#linear-gradient-7"/><linearGradient id="linear-gradient-12" x1="90.85" y1="94.68" x2="119.57" y2="94.68" xlink:href="#linear-gradient-7"/><linearGradient id="linear-gradient-13" x1="90.85" y1="84.88" x2="119.57" y2="84.88" xlink:href="#linear-gradient-7"/><linearGradient id="linear-gradient-14" x1="90.85" y1="75.08" x2="119.57" y2="75.08" xlink:href="#linear-gradient-7"/><linearGradient id="linear-gradient-15" x1="90.85" y1="114.27" x2="119.57" y2="114.27" xlink:href="#linear-gradient-7"/><linearGradient id="linear-gradient-16" x1="7092.46" y1="104.48" x2="7121.19" y2="104.48" gradientTransform="matrix(-1, 0, 0, 1, 7243.67, 0)" xlink:href="#linear-gradient"/><linearGradient id="linear-gradient-17" x1="7092.46" y1="94.68" x2="7121.19" y2="94.68" gradientTransform="matrix(-1, 0, 0, 1, 7243.67, 0)" xlink:href="#linear-gradient"/><linearGradient id="linear-gradient-18" x1="7092.46" y1="114.27" x2="7121.19" y2="114.27" gradientTransform="matrix(-1, 0, 0, 1, 7243.67, 0)" xlink:href="#linear-gradient"/></defs><rect class="cls-1" width="180" height="180" rx="52.51"/><polygon class="cls-2" points="89.15 105.33 78.31 98.49 60.43 107.72 60.43 110.44 78.31 101.2 78.31 103.62 89.15 110.47 89.15 105.33 89.15 105.33"/><polygon class="cls-3" points="89.15 95.53 78.31 88.69 60.43 97.93 60.43 100.64 78.31 91.4 78.31 93.82 89.15 100.67 89.15 95.53 89.15 95.53"/><polygon class="cls-4" points="89.15 85.73 78.31 78.89 60.43 88.13 60.43 90.84 78.31 81.6 78.31 84.02 89.15 90.87 89.15 85.73 89.15 85.73"/><polygon class="cls-5" points="89.15 75.94 78.31 69.09 60.43 78.33 60.43 81.04 78.31 71.8 78.31 74.22 89.15 81.07 89.15 75.94 89.15 75.94"/><polygon class="cls-6" points="89.15 115.13 78.31 108.28 60.43 117.52 60.43 120.24 78.31 111 78.31 113.42 89.15 120.26 89.15 115.13 89.15 115.13"/><polygon class="cls-7" points="89.15 66.58 78.31 59.74 60.43 68.98 60.43 71.69 78.31 62.45 78.31 64.87 89.15 71.72 89.15 66.58 89.15 66.58"/><polygon class="cls-8" points="28.79 105.33 39.64 98.49 57.52 107.72 57.52 110.44 39.64 101.2 39.64 103.62 28.79 110.47 28.79 105.33 28.79 105.33"/><polygon class="cls-9" points="28.79 95.53 39.64 88.69 57.52 97.93 57.52 100.64 39.64 91.4 39.64 93.82 28.79 100.67 28.79 95.53 28.79 95.53"/><polygon class="cls-10" points="28.79 85.73 39.64 78.89 57.52 88.13 57.52 90.84 39.64 81.6 39.64 84.02 28.79 90.87 28.79 85.73 28.79 85.73"/><polygon class="cls-11" points="28.79 115.13 39.64 108.28 57.52 117.52 57.52 120.24 39.64 111 39.64 113.42 28.79 120.26 28.79 115.13 28.79 115.13"/><polygon class="cls-12" points="90.85 105.33 101.69 98.49 119.57 107.72 119.57 110.44 101.69 101.2 101.69 103.62 90.85 110.47 90.85 105.33 90.85 105.33"/><polygon class="cls-13" points="90.85 95.53 101.69 88.69 119.57 97.93 119.57 100.64 101.69 91.4 101.69 93.82 90.85 100.67 90.85 95.53 90.85 95.53"/><polygon class="cls-14" points="90.85 85.73 101.69 78.89 119.57 88.13 119.57 90.84 101.69 81.6 101.69 84.02 90.85 90.87 90.85 85.73 90.85 85.73"/><polygon class="cls-15" points="90.85 75.94 101.69 69.09 119.57 78.33 119.57 81.04 101.69 71.8 101.69 74.22 90.85 81.07 90.85 75.94 90.85 75.94"/><polygon class="cls-16" points="90.85 115.13 101.69 108.28 119.57 117.52 119.57 120.24 101.69 111 101.69 113.42 90.85 120.26 90.85 115.13 90.85 115.13"/><polygon class="cls-17" points="151.21 105.33 140.36 98.49 122.48 107.72 122.48 110.44 140.36 101.2 140.36 103.62 151.21 110.47 151.21 105.33 151.21 105.33"/><polygon class="cls-18" points="151.21 95.53 140.36 88.69 122.48 97.93 122.48 100.64 140.36 91.4 140.36 93.82 151.21 100.67 151.21 95.53 151.21 95.53"/><polygon class="cls-19" points="151.21 115.13 140.36 108.28 122.48 117.52 122.48 120.24 140.36 111 140.36 113.42 151.21 120.26 151.21 115.13 151.21 115.13"/></svg>