<svg id="Layer_1" data-name="Layer 1" xmlns="http://www.w3.org/2000/svg" viewBox="0 0 55 55"><defs><style>.cls-1{fill:#fff;}</style></defs><path class="cls-1" d="M47.16,0a2.51,2.51,0,0,1,1.63,2.7c0,7.48,0,25,0,32.53,0,.83-.24,1.21-.79,1.23s-.82-.38-.82-1.24V2.53c0-.85-.08-.92-.92-.92H8.76c-.85,0-.92.07-.92.92V31.86c0,.86-.26,1.25-.83,1.24s-.78-.4-.78-1.23c0-7.49,0-21.69,0-29.17A2.51,2.51,0,0,1,7.84,0Z"/><path class="cls-1" d="M27.49,55H8.64a2.14,2.14,0,0,1-2.41-2.41V29.34a.81.81,0,1,1,1.61,0c0,.16,0,.32,0,.48V52.46c0,.87.06.93.95.93H46.22c.88,0,.94-.06.94-1V29.72c0-.83.24-1.22.78-1.23s.83.39.83,1.24V52.56A2.15,2.15,0,0,1,46.34,55Z"/><path class="cls-1" d="M27.52,17.49H41.74a4.87,4.87,0,0,1,.54,0,.73.73,0,0,1,.7.69.74.74,0,0,1-.56.86,2.32,2.32,0,0,1-.59.05H13.17a2,2,0,0,1-.68-.09.63.63,0,0,1-.45-.8,1.67,1.67,0,0,1,.63-.69c.13-.09.38,0,.58,0Z"/><path class="cls-1" d="M32.46,22.22h9.28a3.84,3.84,0,0,1,.59,0,.78.78,0,0,1,.14,1.51,1.94,1.94,0,0,1-.64.08H23.05a2.25,2.25,0,0,1-.69-.08.71.71,0,0,1-.47-.81.73.73,0,0,1,.64-.69,3.75,3.75,0,0,1,.58,0Z"/><path class="cls-1" d="M32.44,32.42h9.34a3.09,3.09,0,0,1,.53,0,.72.72,0,0,1,.67.72.71.71,0,0,1-.55.81,2.21,2.21,0,0,1-.63.06H23.06a2.21,2.21,0,0,1-.63-.06.79.79,0,0,1,.13-1.53,3.25,3.25,0,0,1,.54,0Z"/><path class="cls-1" d="M32.46,42.63h9.28a4.87,4.87,0,0,1,.54,0,.74.74,0,0,1,.7.69.72.72,0,0,1-.56.85,2.28,2.28,0,0,1-.64.06H23.1a3.85,3.85,0,0,1-.48,0,.8.8,0,0,1-.74-.84.76.76,0,0,1,.81-.76c.82,0,1.64,0,2.47,0Z"/><path class="cls-1" d="M12,35.16c0-.66,0-1.32,0-2a1.23,1.23,0,0,1,1.26-1.32c1.38,0,2.76,0,4.13,0a1.25,1.25,0,0,1,1.3,1.34c0,1.34,0,2.69,0,4a1.25,1.25,0,0,1-1.31,1.32q-2,0-4.08,0A1.25,1.25,0,0,1,12,37.25c0-.69,0-1.39,0-2.09Zm1.64-1.68v3.43h3.41V33.48Z"/><path class="cls-1" d="M18.7,25c0,.67,0,1.33,0,2a1.29,1.29,0,0,1-1.34,1.36c-1.35,0-2.69,0-4,0A1.26,1.26,0,0,1,12,27q0-2,0-4.08a1.2,1.2,0,0,1,1.23-1.29c1.41,0,2.83,0,4.24,0A1.23,1.23,0,0,1,18.7,23C18.71,23.65,18.7,24.33,18.7,25Zm-1.63-1.69H13.66v3.4h3.41Z"/><path class="cls-1" d="M12,45.39c0-.66,0-1.33,0-2a1.26,1.26,0,0,1,1.29-1.35q2,0,4.08,0a1.27,1.27,0,0,1,1.32,1.38c0,1.33,0,2.65,0,4a1.28,1.28,0,0,1-1.35,1.36c-1.33,0-2.65,0-4,0A1.3,1.3,0,0,1,12,47.37v-2Zm5.06-1.7H13.64v3.43h3.42Z"/><path class="cls-1" d="M22.83,11.45c.5.57,1,1.12,1.46,1.67s.43.94.07,1.28-.85.27-1.29-.23L21.16,12c0,.64,0,1.14,0,1.65s-.31.94-.79.95-.82-.36-.82-1V7.57c0-.69.29-1,1-1s1.22,0,1.82,0A2.5,2.5,0,0,1,24.6,8.66a2.46,2.46,0,0,1-1.49,2.65ZM21.19,9.91c.62,0,1.29.21,1.67-.44a.93.93,0,0,0,0-.83c-.39-.62-1-.43-1.66-.42Z"/><path class="cls-1" d="M33.62,14.61A4,4,0,1,1,35.52,7l.23.14a.83.83,0,0,1,.39,1.17A.8.8,0,0,1,35,8.58a2.46,2.46,0,0,0-1.75-.33,2.42,2.42,0,0,0-1.95,2.63A2.35,2.35,0,0,0,33.76,13,2.56,2.56,0,0,0,35,12.43c.49-.34.91-.43,1.25-.1s.34.82-.1,1.27A3.36,3.36,0,0,1,33.62,14.61Z"/><path class="cls-1" d="M14.5,11.82c0,.64,0,1.22,0,1.81s-.31,1-.81,1-.8-.37-.8-1v-6c0-.71.29-1,1-1a13.73,13.73,0,0,1,2,.07,2.59,2.59,0,0,1,2.2,2.69,2.66,2.66,0,0,1-2.52,2.47C15.26,11.83,14.91,11.82,14.5,11.82Zm0-1.62c.7,0,1.41.2,1.85-.51a.87.87,0,0,0-.05-1c-.48-.62-1.14-.43-1.8-.43Z"/><path class="cls-1" d="M39.45,8.26V9.82c.53,0,1,0,1.52,0s.93.31.93.8-.34.78-.95.8h-1.5V13h1.66c.62,0,1,.31,1,.81s-.37.8-1,.8H38.75c-.63,0-.93-.3-.93-.92q0-3.06,0-6.12c0-.62.3-.91.93-.92.82,0,1.64,0,2.47,0a.79.79,0,0,1,.88.79.83.83,0,0,1-.89.81Z"/><path class="cls-1" d="M27.57,46.59c1.58,0,3.15,0,4.73,0,.71,0,1.12.54.86,1.12a.9.9,0,0,1-.93.49H22.72c-.55,0-.86-.36-.84-.84a.78.78,0,0,1,.86-.76c1.2,0,2.4,0,3.6,0Z"/><path class="cls-1" d="M27.58,26.18h4.78a.78.78,0,0,1,.83,1,.8.8,0,0,1-.86.59q-4.77,0-9.56,0a.79.79,0,0,1-.89-.85c0-.48.34-.75.92-.75Z"/><path class="cls-1" d="M27.56,36.38h4.73a.82.82,0,0,1,.89.53.78.78,0,0,1-.57,1,2.32,2.32,0,0,1-.53,0H22.63a.79.79,0,0,1-.75-.83.75.75,0,0,1,.8-.76c.53,0,1.07,0,1.61,0Z"/><path class="cls-1" d="M26.38,10.59c0-1,0-2,0-3,0-.63.31-1,.8-1s.81.37.81,1c0,2,0,4,0,6.06,0,.63-.33,1-.83,1s-.77-.35-.78-1C26.37,12.63,26.38,11.61,26.38,10.59Z"/></svg>