<svg id="Layer_1" data-name="Layer 1" xmlns="http://www.w3.org/2000/svg" xmlns:xlink="http://www.w3.org/1999/xlink" viewBox="0 0 48 48"><defs><style>.cls-1{fill:url(#linear-gradient);}.cls-2{fill:url(#linear-gradient-2);}.cls-3{fill:url(#linear-gradient-3);}.cls-4{fill:url(#linear-gradient-4);}</style><linearGradient id="linear-gradient" x1="8.05" y1="24" x2="39.95" y2="24" gradientUnits="userSpaceOnUse"><stop offset="0" stop-color="#e44d26"/><stop offset="1" stop-color="#f16529"/></linearGradient><linearGradient id="linear-gradient-2" x1="17.45" y1="15.93" x2="30.57" y2="15.93" xlink:href="#linear-gradient"/><linearGradient id="linear-gradient-3" x1="26.84" y1="10.69" x2="36.19" y2="10.69" xlink:href="#linear-gradient"/><linearGradient id="linear-gradient-4" x1="23.16" y1="4.69" x2="25.03" y2="4.69" xlink:href="#linear-gradient"/></defs><path class="cls-1" d="M25.13,0c1,.19,2.07.31,3.07.57A16,16,0,0,1,39.87,14.5,17.48,17.48,0,0,1,37,25.57c-1.84,2.93-4,5.59-6.15,8.32l-1.07,1.37c.78.16,1.51.29,2.23.45a16.41,16.41,0,0,1,5.07,1.88A8.84,8.84,0,0,1,39,39.1a3.26,3.26,0,0,1,0,4.68,8.47,8.47,0,0,1-3,2.07,24.09,24.09,0,0,1-7.08,1.84,38.42,38.42,0,0,1-11.48-.26,18.26,18.26,0,0,1-6.8-2.36,7.7,7.7,0,0,1-1.72-1.5,3.2,3.2,0,0,1,0-4.28,8.54,8.54,0,0,1,3.54-2.45,23.84,23.84,0,0,1,5.5-1.5l.33-.06-.39-.52c-2.07-2.74-4.19-5.44-6.2-8.23a18.85,18.85,0,0,1-3.34-7.65A16,16,0,0,1,20.86.31C21.5.18,22.14.1,22.79,0ZM24,39.79a3.07,3.07,0,0,0,.27-.32C26.13,37,28,34.56,29.87,32.09s3.77-4.94,5.5-7.52a15,15,0,0,0,2.52-10.82,14.09,14.09,0,1,0-27,7.56,27.26,27.26,0,0,0,3.84,6.41c2.79,3.67,5.62,7.33,8.43,11C23.47,39.06,23.72,39.41,24,39.79Zm0,6.35c.88,0,2.35-.09,3.81-.23a24.72,24.72,0,0,0,6.69-1.47,8.19,8.19,0,0,0,2.93-1.72,1.56,1.56,0,0,0,0-2.55A7.79,7.79,0,0,0,35.77,39a20.54,20.54,0,0,0-7-2,.68.68,0,0,0-.52.26C27.12,38.77,26,40.25,25,41.72c-.63.86-1.26.87-1.88,0-1.08-1.48-2.17-2.94-3.25-4.42A.54.54,0,0,0,19.2,37c-1.45.31-2.91.55-4.34.94a9.65,9.65,0,0,0-4.11,2c-1.08,1-1.11,1.93,0,2.83a10.75,10.75,0,0,0,2.54,1.48C16.53,45.65,19.94,46,24,46.14Z"/><path class="cls-2" d="M30.57,15.91A6.56,6.56,0,1,1,24,9.37,6.57,6.57,0,0,1,30.57,15.91Zm-1.88,0A4.69,4.69,0,1,0,24,20.62,4.7,4.7,0,0,0,28.69,15.92Z"/><path class="cls-3" d="M36.19,15.55c0,.18,0,.32,0,.46a1,1,0,0,1-.92.95,1,1,0,0,1-1-1,10.32,10.32,0,0,0-.62-3.57,10.2,10.2,0,0,0-6.06-6.14c-.56-.22-.83-.56-.79-1a1,1,0,0,1,1.4-.75,12.21,12.21,0,0,1,7.94,11Z"/><path class="cls-4" d="M24.06,5.62a.94.94,0,0,1,.06-1.87.94.94,0,1,1-.06,1.87Z"/></svg>