<svg id="Layer_1" data-name="Layer 1" xmlns="http://www.w3.org/2000/svg" viewBox="0 0 42 42"><defs><style>.cls-1{fill:#fff;}</style></defs><path class="cls-1" d="M13.13,42c-1,0-1.9-.1-2.85-.17a27.53,27.53,0,0,1-6.93-1.15,9.29,9.29,0,0,1-1.8-.86A1.72,1.72,0,0,1,.71,38.2c0-5.63,0-11.27,0-16.9a1.17,1.17,0,0,0-.27-.72A2.51,2.51,0,0,1,0,19.47C0,18.64,0,17.8,0,17a1.59,1.59,0,0,1,.61-1.32,7,7,0,0,1,2.9-1.29,39.41,39.41,0,0,1,6.84-1,.87.87,0,0,0,.5-.26c.7-.67,1.37-1.37,2.07-2.05a1.36,1.36,0,0,1,1.69-.21l.86.48a4.72,4.72,0,0,0,.88.4l-.82-1.48a1.47,1.47,0,0,1,.28-2.09L23.39.61a1.43,1.43,0,0,1,2.46.2C27.76,3.54,29.68,6.27,31.58,9a.69.69,0,0,0,.55.34,1.86,1.86,0,0,1,.94.41c1.49,1.45,3,2.92,4.41,4.4a1.37,1.37,0,0,1,0,2c-1,1-1.9,1.92-2.87,2.86a.52.52,0,0,0-.12.68,4.47,4.47,0,0,0,1.83,2c.64.39,1.31.73,2,1.1.5.28,1,.56,1.49.85A4.15,4.15,0,0,1,42,26.5v1A7.08,7.08,0,0,1,41.32,29a10.05,10.05,0,0,1-1.78,1.79,3.35,3.35,0,0,1-4.76-.7,24.93,24.93,0,0,1-1.41-2.25c-.4-.67-.73-1.38-1.14-2A4.42,4.42,0,0,0,30.14,24a.43.43,0,0,0-.54.1c-.67.69-1.34,1.37-2,2a.92.92,0,0,0-.29.72c0,3.79,0,7.57,0,11.36a1.84,1.84,0,0,1-.91,1.71,8.29,8.29,0,0,1-1.46.73,27.7,27.7,0,0,1-7.16,1.23c-1,.07-1.94.12-2.9.17Zm-11-20.35c0,.11,0,.22,0,.33q0,8.1,0,16.19a.64.64,0,0,0,.39.66,14.73,14.73,0,0,0,1.55.62,30.1,30.1,0,0,0,6.75,1,45.71,45.71,0,0,0,11.5-.63,26,26,0,0,0,3.08-1,.75.75,0,0,0,.51-.83c0-3.39,0-6.78,0-10.17,0-.14,0-.29,0-.47a1.71,1.71,0,0,1-1.51-.7c-1.24-1.26-2.49-2.5-3.75-3.74a.81.81,0,0,0-.48-.21c-2.24.09-4.47.26-6.71.29a40.66,40.66,0,0,1-9-.83C3.65,22.07,2.91,21.85,2.14,21.65Zm9.79-7.55,8.66,6.06L30.64,10.1l-6-8.64L20.71,5.35c0,.05.1.14.17.22l4.14,5a1.6,1.6,0,0,1,.31.47.64.64,0,0,1-.34.8.66.66,0,0,1-.9-.22L21.67,8.71l-2-2.4c-1,.94-1.86,1.87-2.79,2.77a.4.4,0,0,0-.08.59c.68,1.18,1.33,2.38,2,3.58a.69.69,0,0,1-.06.9.7.7,0,0,1-.93.09L15.55,13l-1.62-.89ZM25.62,26,36.39,15.2l-4.32-4.33L21.3,21.65ZM31,22.73a7.47,7.47,0,0,1,3,3.33c.21.38.39.78.61,1.15.41.69.8,1.4,1.27,2.05a2,2,0,0,0,3,.35,11.26,11.26,0,0,0,1.24-1.25,2,2,0,0,0-.36-3,18.34,18.34,0,0,0-2.16-1.32c-1.69-.9-3.41-1.74-4.35-3.63l-2,2ZM1.43,18.52c0,1.24-.23,1.11,1,1.67a1.81,1.81,0,0,0,.42.16c1.19.28,2.38.62,3.58.81a53,53,0,0,0,11.4.4c.66,0,1.31-.11,2-.17a12.49,12.49,0,0,0-1.52-1.16.82.82,0,0,0-.39-.06c-.71,0-1.42.08-2.13.09a56.2,56.2,0,0,1-9.44-.48A19.49,19.49,0,0,1,1.43,18.52Zm10.84-2.41c-.56-.46-1-.87-1.55-1.26a.41.41,0,0,0-.31,0c-1.48.15-3,.23-4.43.48a37.52,37.52,0,0,0-3.75,1,4.23,4.23,0,0,0-.88.5c.57.45,1,.76,1.73.54a29.15,29.15,0,0,1,6.57-1.05C10.5,16.19,11.36,16.16,12.27,16.11Zm3.88,2.65c-.52-.36-1-.74-1.57-1.09A1.11,1.11,0,0,0,14,17.5c-1.06,0-2.13,0-3.19.08-1.77.13-3.54.33-5.31.51v.13A45.46,45.46,0,0,0,16.15,18.76Z"/><path class="cls-1" d="M14,37.78a4,4,0,0,1-3.7-5.51c.76-2,1.59-4,2.4-5.92a1.32,1.32,0,0,1,1.3-.89,1.35,1.35,0,0,1,1.3.89c.8,2,1.64,3.93,2.39,5.92a4,4,0,0,1-2.92,5.42A6.73,6.73,0,0,1,14,37.78Zm0-10.93c-.29.72-.54,1.35-.8,2-.53,1.31-1.08,2.6-1.57,3.91a2.64,2.64,0,0,0,.57,2.86,2.37,2.37,0,0,0,2.55.65,2.66,2.66,0,0,0,1.62-3.55c-.33-.87-.7-1.72-1-2.58Z"/><path class="cls-1" d="M3.52,32.53V28.31a2.23,2.23,0,0,1,0-.45.63.63,0,0,1,.61-.56.62.62,0,0,1,.7.44,1.34,1.34,0,0,1,.06.44c0,2.9,0,5.79,0,8.69a1.33,1.33,0,0,1,0,.2.69.69,0,0,1-.72.69A.66.66,0,0,1,3.52,37c0-1.5,0-3,0-4.5Z"/><path class="cls-1" d="M3.52,24.82a1.92,1.92,0,0,1,0-.24c0-.5.27-.79.69-.79a.71.71,0,0,1,.7.79,3.52,3.52,0,0,1,0,.65.69.69,0,0,1-1.38,0c0-.12,0-.25,0-.37Z"/><path class="cls-1" d="M26.74,19.82A.71.71,0,0,1,26,18.9a1.11,1.11,0,0,1,.25-.36l5.24-5.25.18-.17a.7.7,0,0,1,1,1c-.06.08-.13.14-.19.21l-5.19,5.18A2.48,2.48,0,0,1,26.74,19.82Z"/><path class="cls-1" d="M24.79,20.41c.1.07.37.17.45.36a.92.92,0,0,1,0,.71,1.72,1.72,0,0,1-.65.66.88.88,0,0,1-.71,0,.83.83,0,0,1-.36-.58C23.42,21.16,24.21,20.41,24.79,20.41Z"/></svg>