<svg id="Layer_1" data-name="Layer 1" xmlns="http://www.w3.org/2000/svg" viewBox="0 0 42 42"><defs><style>.cls-1{fill:#fff;}</style></defs><path class="cls-1" d="M33.85,31.19H31.32a3.74,3.74,0,0,1-.73,1,4.46,4.46,0,0,1-1.87.3,1.44,1.44,0,0,1-1.66-1.34h-12a5.63,5.63,0,0,1-.76,1.07,3.46,3.46,0,0,1-2.87,0,6.16,6.16,0,0,1-.78-1.08H9.49v2.53c.39.26.84.42,1,.73a4.46,4.46,0,0,1,.3,1.87c0,1-.34,1.43-1.36,1.66v4H2.71V38c-1.07-.28-1.37-.67-1.37-1.75v-.81A1.42,1.42,0,0,1,2.7,33.86v-.44c0-1.39,0-2.77,0-4.15A4.74,4.74,0,0,1,7.57,24.4h3.21c.3-1.09.67-1.36,1.78-1.36h.64c1.08,0,1.46.3,1.74,1.34h3.31v-2.7A2.4,2.4,0,0,1,16,20.94a2,2,0,0,1-.45-1.38c0-1.22.85-1.82,2.68-2a2.76,2.76,0,0,1,1.17-2.17,2.61,2.61,0,0,1,1.75-.5,2.78,2.78,0,0,1,2.55,2.7h.65a2,2,0,1,1,0,4.06h-.64v2.68h3.32c.29-1.06.66-1.33,1.77-1.33h.64c1.08,0,1.47.3,1.74,1.34h2.64v-1.3c-1-.27-1.33-.66-1.33-1.74v-.63c0-1.12.28-1.49,1.34-1.78v-6.7h-1.3a1.45,1.45,0,0,1-1.7,1.32h-.8a1.42,1.42,0,0,1-1.63-1.33h-4c-.28,1-.66,1.33-1.78,1.33h-.59c-1.11,0-1.49-.28-1.78-1.35-1,0-2.08,0-3.13,0-.12,0-.29.18-.36.32A8.81,8.81,0,0,1,.06,9.87,8.77,8.77,0,0,1,9.3,0a8.52,8.52,0,0,1,7.44,5,.57.57,0,0,0,.6.38c1,0,1.95,0,2.8,0a3.78,3.78,0,0,1,.74-1.06,3.52,3.52,0,0,1,1.24-.29,4.56,4.56,0,0,1,.64,0,1.43,1.43,0,0,1,1.65,1.34h3.88a5.06,5.06,0,0,1,.71-1,3.41,3.41,0,0,1,2.91,0,6.17,6.17,0,0,1,.8,1.09c.95,0,2.08,0,3.2,0a4.7,4.7,0,0,1,4.6,3.66,5.68,5.68,0,0,1,.13,1.3c0,2.7,0,5.39,0,8.09v.45c1.06.27,1.36.67,1.36,1.75v.76a1.41,1.41,0,0,1-1.33,1.62V33.84c1,.29,1.33.66,1.33,1.78v.59c0,1.12-.28,1.49-1.36,1.79v4H33.88V38a4.69,4.69,0,0,1-.75-.31,1.22,1.22,0,0,1-.61-1.05c0-.5,0-1,0-1.48,0-.71.48-1.14,1.33-1.32ZM8.81,1.36a7.45,7.45,0,1,0,7.44,7.48A7.46,7.46,0,0,0,8.81,1.36ZM39.27,19a1.62,1.62,0,0,0,0-.18c0-2.9,0-5.79,0-8.68A3.36,3.36,0,0,0,36,6.78c-.9,0-1.8,0-2.71,0h-.74v4.06h1.15a1.39,1.39,0,0,1,1.54,1.55c0,2,0,4.06,0,6.09V19ZM14.9,29.79H27.06v-4H14.91a1.93,1.93,0,0,0,0,.23Zm-4.08-4c-1.27,0-2.52-.08-3.75,0a3.27,3.27,0,0,0-3,3.1c-.05,1.63,0,3.27,0,4.9,0,0,0,.05,0,.06h4a1,1,0,0,0,0-.12V31.32a1.37,1.37,0,0,1,1.49-1.5h1.21Zm28.44,8.09V23.08h-4V33.86Zm-10.85-23v-4h-4v4Zm-11,0H20.3v-4H17.36A8.5,8.5,0,0,1,17.37,10.81Zm13.81,19h2.65v-4H31.18ZM4.06,40.63h4V38h-4Zm35.2,0V38h-4v2.66ZM21,20.33h3.26c.53,0,.85-.26.85-.68s-.31-.67-.85-.67c-2.14,0-4.29,0-6.43,0-.54,0-.85.25-.85.67s.31.68.85.68ZM21.7,5.44v6.72H23V5.44Zm8.13,0v6.73h1.31V5.44ZM13.52,31.15V24.42H12.21v6.73Zm15-6.73v6.73h1.3V24.42Zm12.16-4.06H33.89v1.3h6.74ZM2.72,35.26v1.31H9.44V35.26Zm31.17,1.3h6.72v-1.3H33.89ZM22.33,21.72H19.67v2.65h2.66Zm0-4.12a1.34,1.34,0,0,0-1.41-1.33,1.29,1.29,0,0,0-1.24,1.33Z"/><path class="cls-1" d="M4.65,10.64A10.16,10.16,0,0,1,5,9.44C5.67,7.63,6.39,5.82,7.11,4a1.74,1.74,0,0,1,3.37,0c.7,1.75,1.4,3.5,2.08,5.27A4.09,4.09,0,0,1,10,14.74,4.18,4.18,0,0,1,4.65,10.64ZM6,10.72a2.76,2.76,0,0,0,3.41,2.75,2.72,2.72,0,0,0,1.85-3.7q-1-2.64-2.09-5.26c-.06-.17-.29-.41-.4-.38a.74.74,0,0,0-.44.41C7.65,6.32,6.94,8.12,6.24,9.91A5.64,5.64,0,0,0,6,10.72Z"/><path class="cls-1" d="M36.6,10.86h1.31v1.32H36.6Z"/><path class="cls-1" d="M36.61,13.57h1.3v1.31h-1.3Z"/><path class="cls-1" d="M36.6,16.28h1.3v1.31H36.6Z"/><path class="cls-1" d="M16.27,28.44v-1.3h1.31v1.3Z"/><path class="cls-1" d="M19,28.43v-1.3h1.31v1.3Z"/><path class="cls-1" d="M23,28.44H21.69v-1.3H23Z"/><path class="cls-1" d="M36.61,25.77h1.3v1.32h-1.3Z"/><path class="cls-1" d="M37.91,28.49v1.29h-1.3V28.49Z"/><path class="cls-1" d="M37.91,32.51h-1.3V31.2h1.3Z"/></svg>