<svg id="Layer_1" data-name="Layer 1" xmlns="http://www.w3.org/2000/svg" xmlns:xlink="http://www.w3.org/1999/xlink" viewBox="0 0 60 60"><defs><style>.cls-1{fill:url(#linear-gradient);}.cls-2{fill:url(#linear-gradient-2);}.cls-3{fill:url(#linear-gradient-3);}.cls-4{fill:url(#linear-gradient-4);}</style><linearGradient id="linear-gradient" x1="19.09" y1="19.04" x2="51.57" y2="19.04" gradientUnits="userSpaceOnUse"><stop offset="0" stop-color="#e24d26"/><stop offset="1" stop-color="#ef6529"/></linearGradient><linearGradient id="linear-gradient-2" x1="7.2" y1="49.29" x2="52.8" y2="49.29" xlink:href="#linear-gradient"/><linearGradient id="linear-gradient-3" x1="26.9" y1="15.33" x2="43.79" y2="15.33" xlink:href="#linear-gradient"/><linearGradient id="linear-gradient-4" x1="30.93" y1="14.73" x2="39.75" y2="14.73" xlink:href="#linear-gradient"/></defs><path class="cls-1" d="M24.06,23.34c-.25-.14-.46-.27-.69-.37a4.78,4.78,0,0,1-2.18-6.78,1.47,1.47,0,0,0,0-1.69,4.75,4.75,0,0,1,2.22-6.8,1.49,1.49,0,0,0,1-1.32,4.75,4.75,0,0,1,5.88-4.22,1.39,1.39,0,0,0,1.46-.49,4.76,4.76,0,0,1,7.23,0,1.42,1.42,0,0,0,1.51.49A4.75,4.75,0,0,1,46.3,6.36a1.5,1.5,0,0,0,1,1.36,4.76,4.76,0,0,1,2.18,6.77,1.49,1.49,0,0,0,0,1.69A4.76,4.76,0,0,1,47.28,23c-.21.1-.41.23-.66.37.14.24.24.44.36.64q2.18,3.77,4.34,7.53a1.3,1.3,0,0,1-.71,2.07,1.34,1.34,0,0,1-.63,0c-1.35-.23-2.7-.47-4-.73-.37-.08-.55,0-.68.38-.43,1.28-.92,2.54-1.37,3.81a1.32,1.32,0,0,1-2.5.22l-3.73-6.46-.33-.54a5.47,5.47,0,0,1-4,0l-3.48,6c-.21.35-.41.71-.62,1.07a1.28,1.28,0,0,1-1.26.7,1.3,1.3,0,0,1-1.17-.94c-.47-1.32-.95-2.65-1.43-4,0-.11-.09-.21-.16-.36l-3.81.68-.76.13a1.25,1.25,0,0,1-1.33-.54,1.22,1.22,0,0,1-.06-1.39c.41-.73.83-1.46,1.25-2.19L23.73,24C23.84,23.77,23.94,23.58,24.06,23.34ZM29.29,3.89a3,3,0,0,0-3,2.71,2.89,2.89,0,0,1-2,2.74,3,3,0,0,0-1.41,4.36,2.66,2.66,0,0,1,0,3.25,3,3,0,0,0,1.43,4.4A2.84,2.84,0,0,1,26.24,24a2.91,2.91,0,0,0,3.62,2.7,3.13,3.13,0,0,1,3.27,1.06,2.87,2.87,0,0,0,4.46,0,3.07,3.07,0,0,1,3.22-1A2.9,2.9,0,0,0,44.45,24a2.81,2.81,0,0,1,1.9-2.66,3,3,0,0,0,1.43-4.44,2.78,2.78,0,0,1,0-3.16,2.89,2.89,0,0,0-1.44-4.43,2.75,2.75,0,0,1-1.82-2.47A3,3,0,0,0,40.66,4a2.57,2.57,0,0,1-2.95-1A3.06,3.06,0,0,0,33,3a2.81,2.81,0,0,1-3,1C29.71,4,29.43,3.91,29.29,3.89ZM45.93,25.94a2.71,2.71,0,0,0-.18.25,4.86,4.86,0,0,1-5.36,2.33,1.55,1.55,0,0,0-.8,0c-.63.19-.76.57-.43,1.13q1.47,2.56,3,5.13c.1.18.21.34.37.58.45-1.24.85-2.36,1.26-3.48s.61-1.21,1.79-1l3.63.64ZM28.22,35.42c1.16-2,2.24-3.87,3.31-5.74.33-.58.18-1-.47-1.15a1.71,1.71,0,0,0-.81,0A4.8,4.8,0,0,1,25,26.34c-.08-.12-.18-.23-.29-.38l-3.23,5.6c1.33-.24,2.53-.45,3.72-.68s1.33,0,1.68.94C27.34,33,27.75,34.13,28.22,35.42Z"/><path class="cls-2" d="M36.39,45.52l5.33-3.08c1.67-.95,3.31-1.95,5-2.87a4.11,4.11,0,1,1,3.84,7.27L41.6,52c-2.49,1.44-5,2.86-7.48,4.33a7.13,7.13,0,0,1-5.43.8c-2.42-.55-4.84-1.11-7.27-1.62a5,5,0,0,0-4,1,.64.64,0,0,0-.17.52,1.69,1.69,0,0,1-1.36,2.21c-.81.23-1.63.44-2.44.65a1.64,1.64,0,0,1-2.19-1.27q-1.41-5.22-2.8-10.44L7.33,44a1.72,1.72,0,0,1,1.41-2.45L10.61,41c1.52-.42,2-.19,2.73,1.24l2.75-2.1a6.41,6.41,0,0,1,3.61-1.56,6,6,0,0,1,1.79.18c3.79,1,7.56,2.06,11.34,3.06A4.66,4.66,0,0,1,36.39,45.52ZM16.63,54.76l.58-.31a6.87,6.87,0,0,1,4.94-.72c2.26.5,4.51,1,6.76,1.54a5.67,5.67,0,0,0,4.45-.66c3-1.76,6-3.46,8.94-5.18l7.38-4.26a2.26,2.26,0,0,0,1.2-2.41,2.22,2.22,0,0,0-3.38-1.47q-5.52,3.16-11,6.38a1.44,1.44,0,0,0-.54.58,4.33,4.33,0,0,1-4.72,2.32c-2.25-.51-4.47-1.17-6.69-1.79a.93.93,0,0,1-.45-1.54A1,1,0,0,1,25.22,47c2,.54,4,1.1,6,1.6a3.38,3.38,0,0,0,1.55,0,2.47,2.47,0,0,0,1.82-2.45,2.61,2.61,0,0,0-2-2.49c-3.68-1-7.38-2-11-3a4.13,4.13,0,0,0-3.87.71c-1.16.87-2.32,1.75-3.45,2.65a.66.66,0,0,0-.22.57C14.8,48,15.71,51.33,16.63,54.76Zm-1.23,2.7-4-14.74-2.33.64,3.94,14.72Z"/><path class="cls-3" d="M43.79,15.39a8.45,8.45,0,1,1-8.36-8.5A8.44,8.44,0,0,1,43.79,15.39Zm-15.32,0a6.88,6.88,0,1,0,6.84-6.89A6.87,6.87,0,0,0,28.47,15.35Z"/><path class="cls-4" d="M39.75,14a1.74,1.74,0,0,1-.3.41c-.47.44-1,.86-1.47,1.28a.4.4,0,0,0-.16.47c.17.63.3,1.28.46,1.92.08.31,0,.61-.25.73a1,1,0,0,1-.73,0,18,18,0,0,1-1.63-1,.52.52,0,0,0-.67,0c-.49.33-1,.62-1.52.93a.69.69,0,0,1-.85,0,.68.68,0,0,1-.21-.78c.16-.62.28-1.24.44-1.86a.41.41,0,0,0-.17-.5c-.49-.4-1-.83-1.44-1.24a.66.66,0,0,1-.28-.76.69.69,0,0,1,.69-.45c.63-.05,1.26-.12,1.89-.15a.43.43,0,0,0,.43-.32c.22-.57.47-1.12.7-1.69.13-.31.29-.57.68-.56s.53.27.66.58c.23.57.48,1.12.7,1.69a.39.39,0,0,0,.4.29c.64,0,1.29.1,1.93.16A.68.68,0,0,1,39.75,14Zm-2.2.38c-.37,0-.65-.07-.92-.07a.89.89,0,0,1-.92-.66c-.09-.28-.23-.54-.37-.87-.14.34-.27.6-.36.87a.88.88,0,0,1-.92.66c-.27,0-.54,0-.91.07.31.28.54.49.79.69a.75.75,0,0,1,.28.87c-.09.31-.14.63-.23,1,.37-.22.65-.38.93-.56a.74.74,0,0,1,.85,0c.28.18.57.34.93.56-.09-.41-.14-.73-.23-1.05a.73.73,0,0,1,.27-.84Z"/></svg>