<svg id="Layer_1" data-name="Layer 1" xmlns="http://www.w3.org/2000/svg" xmlns:xlink="http://www.w3.org/1999/xlink" viewBox="0 0 60 60"><defs><style>.cls-1{fill:url(#linear-gradient);}.cls-2{fill:url(#linear-gradient-2);}.cls-3{fill:url(#linear-gradient-3);}.cls-4{fill:url(#linear-gradient-4);}</style><linearGradient id="linear-gradient" x1="10" y1="30" x2="60" y2="30" gradientUnits="userSpaceOnUse"><stop offset="0" stop-color="#e24d26"/><stop offset="1" stop-color="#ef6529"/></linearGradient><linearGradient id="linear-gradient-2" x1="0" y1="33.44" x2="17.49" y2="33.44" xlink:href="#linear-gradient"/><linearGradient id="linear-gradient-3" x1="2.5" y1="26.56" x2="17.5" y2="26.56" xlink:href="#linear-gradient"/><linearGradient id="linear-gradient-4" x1="5.02" y1="19.69" x2="17.51" y2="19.69" xlink:href="#linear-gradient"/></defs><path class="cls-1" d="M60,31.44c-.27,1.24-.55,2.48-.81,3.72q-.54,2.61-1.06,5.22c-.16.75-.57,1.06-1.42,1.07H54.92c-1.29,3.13-3.29,4.6-6.19,4.59s-4.93-1.52-6.15-4.59H42c-4.69,0-9.37,0-14.06,0a.66.66,0,0,0-.76.53,6.15,6.15,0,0,1-6,4.07,6.16,6.16,0,0,1-6-4.14c-.12-.38-.31-.46-.69-.45-1.05,0-2.11,0-3.16,0-.85,0-1.41-.47-1.41-1.14s.57-1.13,1.41-1.14H15.1c.1-.29.18-.54.28-.79a6.28,6.28,0,0,1,5.95-3.79,6.13,6.13,0,0,1,5.86,4c.15.45.36.57.84.56,1.95,0,3.9,0,5.94,0,1.9-7.61,3.79-15.22,5.71-22.91H11.83A4.29,4.29,0,0,1,11,16.2a1.1,1.1,0,0,1,0-2.18,3.16,3.16,0,0,1,.69-.06q14.62,0,29.24,0c1.32,0,1.81.57,1.52,1.74l-1.28,5.13h.76c2.65,0,5.31-.06,8,.09,5,.29,9.37,4.12,10.05,8.71,0,.18.08.35.12.52ZM40.56,23.17l-4,16h6c1.32-3.11,3.3-4.57,6.17-4.57s4.84,1.45,6.16,4.56h.93c.38-1.84.76-3.65,1.12-5.46a14.75,14.75,0,0,0,.53-3.06c-.11-3.81-3.72-7.25-7.88-7.43C46.63,23.07,43.64,23.17,40.56,23.17Zm8.18,13.72a3.45,3.45,0,1,0,3.76,3.43A3.6,3.6,0,0,0,48.74,36.89ZM25,40.38a3.53,3.53,0,0,0-3.68-3.49,3.45,3.45,0,1,0,0,6.87A3.57,3.57,0,0,0,25,40.38Z"/><path class="cls-2" d="M8.77,34.58c-2.46,0-4.92,0-7.38,0-1,0-1.65-.77-1.28-1.56a1.29,1.29,0,0,1,1.31-.73H16.05c.78,0,1.28.32,1.41.89.17.77-.39,1.38-1.32,1.38C13.68,34.59,11.23,34.58,8.77,34.58Z"/><path class="cls-3" d="M10,27.7c-2,0-3.95,0-5.92,0a3.08,3.08,0,0,1-.75-.06,1.17,1.17,0,0,1-.84-1.12,1.21,1.21,0,0,1,1-1.08,2.75,2.75,0,0,1,.41,0H16a1.36,1.36,0,0,1,1.32.63c.44.76-.14,1.63-1.13,1.65-1.49,0-3,0-4.46,0C11.18,27.71,10.59,27.7,10,27.7Z"/><path class="cls-4" d="M11.22,20.83H6.48C5.55,20.82,5,20.41,5,19.7s.55-1.15,1.49-1.15c3.2,0,6.4,0,9.6,0,1.09,0,1.73.92,1.21,1.72a1.32,1.32,0,0,1-1.24.56Z"/></svg>