<svg id="Layer_1" data-name="Layer 1" xmlns="http://www.w3.org/2000/svg" xmlns:xlink="http://www.w3.org/1999/xlink" viewBox="0 0 60 60"><defs><style>.cls-1{fill:url(#linear-gradient);}.cls-2{fill:url(#linear-gradient-2);}.cls-3{fill:url(#linear-gradient-3);}.cls-4{fill:url(#linear-gradient-4);}</style><linearGradient id="linear-gradient" x1="0.01" y1="46.12" x2="29.84" y2="46.12" gradientUnits="userSpaceOnUse"><stop offset="0" stop-color="#e24d26"/><stop offset="1" stop-color="#ef6529"/></linearGradient><linearGradient id="linear-gradient-2" x1="30.16" y1="13.89" x2="59.99" y2="13.89" xlink:href="#linear-gradient"/><linearGradient id="linear-gradient-3" x1="33.95" y1="38.84" x2="50.25" y2="38.84" xlink:href="#linear-gradient"/><linearGradient id="linear-gradient-4" x1="9.75" y1="21.18" x2="26.05" y2="21.18" xlink:href="#linear-gradient"/></defs><path class="cls-1" d="M20.89,36.35h4.59a4.08,4.08,0,0,1,4.36,4.36V55.65A4.09,4.09,0,0,1,25.47,60H4.39A4.07,4.07,0,0,1,0,55.65q0-7.47,0-14.94a4.08,4.08,0,0,1,4.35-4.36H9c0-.33,0-.64,0-.94a3.18,3.18,0,0,1,3-3.13c1.89-.06,3.8-.06,5.69,0a3.21,3.21,0,0,1,3.18,3.26ZM2.37,47.7c0,.24,0,.43,0,.61,0,2.43,0,4.85,0,7.28,0,1.47.61,2.08,2.08,2.09h21c1.47,0,2.08-.62,2.09-2.08V48.32c0-.2,0-.4,0-.63H18.2c0,.24,0,.45,0,.66,0,1-.42,1.42-1.42,1.42H13a1.18,1.18,0,0,1-1.31-1.29c0-.25,0-.5,0-.78Zm25.15-2.38V40.88c0-1.61-.61-2.22-2.21-2.22H4.63a4.22,4.22,0,0,0-1,.09,1.48,1.48,0,0,0-1.23,1.36c-.06,1.72,0,3.44,0,5.2h9.29v-.65c0-1,.41-1.38,1.39-1.39,1.24,0,2.49,0,3.73,0,1,0,1.39.41,1.42,1.44,0,.2,0,.4,0,.61Zm-16.26-9h7.33c0-.3,0-.55,0-.8a.94.94,0,0,0-1-.95q-2.68,0-5.37,0a.93.93,0,0,0-1,1C11.25,35.76,11.26,36,11.26,36.31Zm4.58,11.14V45.62H14v1.83Z"/><path class="cls-2" d="M51,4.16h4.5A4.08,4.08,0,0,1,60,8.62Q60,16,60,23.49a4,4,0,0,1-3.1,4.16,5.2,5.2,0,0,1-1.25.12q-10.55,0-21.09,0a4.06,4.06,0,0,1-4.38-4.38V8.58a4.08,4.08,0,0,1,4.42-4.42h4.53V3.4A3.25,3.25,0,0,1,42.34,0C44.15,0,46,0,47.78,0A3.26,3.26,0,0,1,51,3.44ZM32.53,15.49c0,.21,0,.39,0,.58q0,3.7,0,7.4c0,1.37.65,2,2,2H55.61c1.41,0,2-.63,2-2q0-3.68,0-7.35c0-.18,0-.36,0-.57H48.34V16c0,1.14-.4,1.53-1.52,1.53H43.15a1.2,1.2,0,0,1-1.34-1.33c0-.24,0-.49,0-.75Zm25.13-2.36c0-1.54,0-3,0-4.53S57,6.46,55.51,6.46H34.38c-1,0-1.81.57-1.84,1.45-.07,1.73,0,3.45,0,5.21h9.25c0-.17,0-.31,0-.46,0-1.27.37-1.61,1.63-1.62h3.23c1.32,0,1.65.33,1.68,1.63,0,.14,0,.28,0,.46Zm-9-9c.13-1.48-.14-1.79-1.57-1.79H42.9c-1.32,0-1.66.43-1.42,1.79ZM44.16,15.21H46v-1.8H44.16Z"/><path class="cls-3" d="M44.17,36.31c-.58.65-1.05,1.19-1.54,1.72a1.17,1.17,0,0,1-1.73.18,1.15,1.15,0,0,1,0-1.73c1.18-1.33,2.35-2.66,3.54-4a1.13,1.13,0,0,1,1.81,0q1.81,2,3.58,4a1.15,1.15,0,0,1,0,1.74,1.17,1.17,0,0,1-1.69-.2c-.5-.53-1-1.08-1.56-1.74,0,.35,0,.54,0,.74,0,1.65,0,3.29,0,4.94a3.39,3.39,0,0,1-3.68,3.65H35.13a1.15,1.15,0,1,1,0-2.29c.52,0,1,0,1.58,0h6.27c.89,0,1.27-.36,1.28-1.25,0-1.76,0-3.51,0-5.26C44.22,36.69,44.2,36.57,44.17,36.31Z"/><path class="cls-4" d="M15.87,23.65,17.33,22a1.19,1.19,0,0,1,1.77-.22,1.15,1.15,0,0,1,0,1.74c-1.17,1.33-2.35,2.66-3.53,4a1.13,1.13,0,0,1-1.82,0c-1.2-1.33-2.4-2.67-3.58-4a1.13,1.13,0,0,1,0-1.68,1.17,1.17,0,0,1,1.73.16c.5.54,1,1.08,1.61,1.78V22.9c0-1.62,0-3.25,0-4.87a3.38,3.38,0,0,1,3.63-3.64h7.6a1.21,1.21,0,0,1,1.22.62,1.16,1.16,0,0,1-1.14,1.68c-1,0-2,0-3,0H17c-.77,0-1.19.36-1.2,1.08,0,1.88,0,3.75,0,5.63A.9.9,0,0,0,15.87,23.65Z"/></svg>