<svg id="Layer_1" data-name="Layer 1" xmlns="http://www.w3.org/2000/svg" xmlns:xlink="http://www.w3.org/1999/xlink" viewBox="0 0 60 60"><defs><style>.cls-1{fill:url(#linear-gradient);}</style><linearGradient id="linear-gradient" x1="16.92" y1="30" x2="43.08" y2="30" gradientUnits="userSpaceOnUse"><stop offset="0" stop-color="#e24d26"/><stop offset="1" stop-color="#ef6529"/></linearGradient></defs><path class="cls-1" d="M30.31,0a1.58,1.58,0,0,1,.46,1.33c0,1.33,0,2.66,0,4a1.39,1.39,0,0,0,.31.85,3.78,3.78,0,0,1,1.23,3.39c-.08.9,0,1.83,0,2.75,0,.75-.27,1.15-.75,1.16s-.78-.41-.78-1.19c0-1-.05-2.07,0-3.1A1.77,1.77,0,0,0,30,7.5a1.8,1.8,0,0,0-.78,1.68c.06,1.58,0,3.17,0,4.75a1.66,1.66,0,0,1-.54,1.43,3.05,3.05,0,0,0-1,2.77c.08,1.93,0,3.86,0,5.8,0,.48.13.71.53.8s.61.22,1,.35c0-.25,0-.45,0-.66,0-1.07,0-2.14,0-3.22a1.12,1.12,0,0,1,.56-1.14,1.86,1.86,0,0,0,1-2.14,11.89,11.89,0,0,1,0-1.58c0-.71.28-1.09.75-1.1s.77.39.78,1.13,0,1.6,0,2.4a.79.79,0,0,0,.36.81,2.5,2.5,0,0,1,1.19,2.54c-.05,3,0,6,0,9a1,1,0,0,0,.42.9,3,3,0,0,1,1.08,3.39c-.1.43-.39.72-.74.63a1.15,1.15,0,0,1-.74-1.44c.14-.75-.29-1-.75-1.34a.4.4,0,0,0-.32,0c-.59.2-1.17.42-1.75.66a.52.52,0,0,0-.25.36c0,2.85,0,5.7,0,8.63.68-.1,1.31-.17,1.94-.28,1.13-.19,1.13-.2,1.13-1.48,0-.75,0-5.49,0-6.23s.29-1,.74-1,.78.38.79,1.07c0,1.07,0,6.15,0,7.22,0,.34.08.53.37.64a1.91,1.91,0,0,1,1.17,2c0,3,0,6.09,0,9.14v.77h2.47c1.23,0,1.81.67,1.82,2.08v1.44c.39,0,.73,0,1.07,0a.88.88,0,0,1,0,1.75H18.1c-.79,0-1.16-.27-1.18-.86s.37-.9,1.19-.9h.69V56.78c0-1.38.59-2.05,1.79-2.06h1V52.11c0-.86,0-1.72,0-2.58,0-1.08.34-1.62,1.25-1.93.36-.12.28-.38.28-.63,0-2.64,0-5.27,0-7.91a2.32,2.32,0,0,1,1.1-2.3,1,1,0,0,0,.46-1c0-2.85,0-5.7,0-8.55a2.2,2.2,0,0,1,1-2.12A1.11,1.11,0,0,0,26.18,24c0-2.32,0-4.65,0-7a2.53,2.53,0,0,1,.76-2.07,2.5,2.5,0,0,0,.81-2.23c-.08-1.32,0-2.65,0-4a2.32,2.32,0,0,1,.73-2,2.5,2.5,0,0,0,.83-2.28c-.07-1.06,0-2.14,0-3.22A1.51,1.51,0,0,1,29.69,0ZM29.23,37c0-3.3,0-6.5,0-9.7a.56.56,0,0,0-.28-.39c-.54-.24-1.09-.44-1.64-.63s-1.13.42-1.13.92q0,4.32,0,8.66a.51.51,0,0,0,.24.4C27.32,36.47,28.24,36.69,29.23,37Zm-3.1,12.27H23.52c-.35,0-.44.23-.43.61,0,.74,0,1.48,0,2.22v2.63h3Zm4.64-17.08a6.62,6.62,0,0,1,1-.36c.45-.1.59-.36.58-.88,0-3,0-5.94,0-8.9,0-.51-.41-1.12-.76-1.13s-.77.61-.77,1.1V32.14Zm3.11,12.07V54.69h1.49V45.23c0-.73-.34-1.11-1-1.1C34.23,44.14,34.08,44.18,33.88,44.21Zm-1.61.24-1.48.23v10h1.48Zm-6.15,3a1.36,1.36,0,0,0,0-.17c0-3,0-5.93,0-8.9,0-.43-.25-.46-.5-.48-.44,0-1,.66-1,1.17v6.9c0,1.6,0,1.6,1.4,1.53C26.05,47.46,26.06,47.44,26.12,47.41Zm3,.26c0-.11.07-.14.07-.18,0-2.8,0-5.61,0-8.41A.49.49,0,0,0,29,38.7c-.4-.13-.81-.21-1.25-.31v9.18Zm-8.77,8.85v1.69h7.28V56.52Zm11.94,1.67h7.31V56.53H32.32Zm-4.58-8.85v5.35h1.45V49.44Zm1.53,7.18v1.69h1.46V56.52Z"/></svg>