<svg id="Layer_1" data-name="Layer 1" xmlns="http://www.w3.org/2000/svg" xmlns:xlink="http://www.w3.org/1999/xlink" viewBox="0 0 60 60"><defs><style>.cls-1{fill:url(#linear-gradient);}.cls-2{fill:url(#linear-gradient-2);}.cls-3{fill:url(#linear-gradient-3);}.cls-4{fill:url(#linear-gradient-4);}.cls-5{fill:url(#linear-gradient-5);}.cls-6{fill:url(#linear-gradient-6);}.cls-7{fill:url(#linear-gradient-7);}.cls-8{fill:url(#linear-gradient-8);}.cls-9{fill:url(#linear-gradient-9);}.cls-10{fill:url(#linear-gradient-10);}.cls-11{fill:url(#linear-gradient-11);}</style><linearGradient id="linear-gradient" x1="2.77" y1="30" x2="57.23" y2="30" gradientUnits="userSpaceOnUse"><stop offset="0" stop-color="#e24d26"/><stop offset="1" stop-color="#ef6529"/></linearGradient><linearGradient id="linear-gradient-2" x1="12.94" y1="46.06" x2="28.66" y2="46.06" xlink:href="#linear-gradient"/><linearGradient id="linear-gradient-3" x1="15.95" y1="17.82" x2="26.35" y2="17.82" xlink:href="#linear-gradient"/><linearGradient id="linear-gradient-4" x1="40.11" y1="30.92" x2="47.13" y2="30.92" xlink:href="#linear-gradient"/><linearGradient id="linear-gradient-5" x1="35.18" y1="30.9" x2="40.74" y2="30.9" xlink:href="#linear-gradient"/><linearGradient id="linear-gradient-6" x1="46.48" y1="30.91" x2="52.5" y2="30.91" xlink:href="#linear-gradient"/><linearGradient id="linear-gradient-7" x1="39.91" y1="17.59" x2="41.67" y2="17.59" xlink:href="#linear-gradient"/><linearGradient id="linear-gradient-8" x1="46.54" y1="17.59" x2="48.26" y2="17.59" xlink:href="#linear-gradient"/><linearGradient id="linear-gradient-9" x1="32.09" y1="17.59" x2="33.85" y2="17.59" xlink:href="#linear-gradient"/><linearGradient id="linear-gradient-10" x1="36.64" y1="17.59" x2="38.36" y2="17.59" xlink:href="#linear-gradient"/><linearGradient id="linear-gradient-11" x1="49.64" y1="17.59" x2="51.37" y2="17.59" xlink:href="#linear-gradient"/></defs><path class="cls-1" d="M34.09,0a12.57,12.57,0,0,1,2.22,1,5.4,5.4,0,0,1,2.5,4.81V9.32H51.35c.67,0,1,.31,1,.86a.77.77,0,0,1-.66.84,4.41,4.41,0,0,1-.81.05H14.34a2.3,2.3,0,0,0-1.3.33,1.54,1.54,0,0,0-.55,1.08c0,4.75,0,9.49,0,14.24a1.05,1.05,0,0,0,.07.24h.66c2.8,0,5.6,0,8.4,0a3.92,3.92,0,0,1,.47,7.82c-2.94.08-5.87,0-8.81,0h-.82a6,6,0,0,0,.16,1.69,2.28,2.28,0,0,0,1,.86,1.75,1.75,0,0,0,.8.06q19.56,0,39.11,0a4.35,4.35,0,0,0,.81,0,1.32,1.32,0,0,0,1.11-1.12,4.11,4.11,0,0,0,0-.7V13c0-.14,0-.27,0-.41A1.38,1.38,0,0,0,54,11.09c-1.28,0-2.56,0-3.85,0a5.62,5.62,0,0,1-.58,0,.81.81,0,0,1-.79-.9.76.76,0,0,1,.81-.82c1.65,0,3.3-.05,5,0A3,3,0,0,1,57.18,12a5.56,5.56,0,0,1,0,.82q0,11.42,0,22.85a3.17,3.17,0,0,1-2.31,3.37,5.31,5.31,0,0,1-1.38.14H38.81V40c0,4.71,0,9.42,0,14.12A5.53,5.53,0,0,1,35,59.69a6.31,6.31,0,0,1-1.88.29Q20.79,60,8.43,60A5.52,5.52,0,0,1,2.8,54.61c0-.28,0-.55,0-.82V15.41a4.83,4.83,0,0,1,0-.76.77.77,0,0,1,.82-.74.79.79,0,0,1,.87.76,6.44,6.44,0,0,1,0,.76q0,19.31,0,38.61a4,4,0,0,0,1.53,3.43,3.61,3.61,0,0,0,2.22.77q12.51,0,25,0A3.74,3.74,0,0,0,37,54.71c0-.25,0-.5,0-.76V39.26H35.78V53.09a5.52,5.52,0,0,1,0,.58.8.8,0,0,1-.84.8.81.81,0,0,1-.87-.82,5.82,5.82,0,0,1,0-.59V39.2H14.43A4.91,4.91,0,0,1,12.94,39a3,3,0,0,1-2.19-2.68,6.52,6.52,0,0,1,0-.76q0-11.34,0-22.68a4.89,4.89,0,0,1,.13-1.27A3.14,3.14,0,0,1,14.1,9.32H34c0-1.33,0-2.6,0-3.86a.66.66,0,0,0-.7-.65c-1.42,0-2.84,0-4.26,0-.13,0-.32.18-.38.32-.17.39-.28.81-.42,1.21A1.52,1.52,0,0,1,26.7,7.47c-3.92,0-7.85,0-11.77,0a1.52,1.52,0,0,1-1.58-1.15c-.18-.49-.34-1-.52-1.51H8.33a.72.72,0,0,0-.75.74,5.61,5.61,0,0,0,0,.58V53.89c0,1.17.13,1.3,1.31,1.3h24c1,0,1.19-.18,1.19-1.19,0-.72,0-1.44,0-2.17s.32-1,.87-1,.85.34.87,1c0,.84,0,1.68,0,2.51A2.51,2.51,0,0,1,33.13,57H8.48a2.51,2.51,0,0,1-2.66-2.57V6.1a5.49,5.49,0,0,1,.1-1.22A2.44,2.44,0,0,1,8.23,3.06c1.58,0,3.15,0,4.72,0a1.49,1.49,0,0,1,1.48,1s0,.07,0,.11c.18.49.23,1.2.58,1.42s1.08.11,1.64.11c3.13,0,6.26,0,9.39,0,.39,0,.6-.09.7-.49A8.23,8.23,0,0,1,27.2,4a1.44,1.44,0,0,1,1.39-1c1.59,0,3.19,0,4.78,0a2.43,2.43,0,0,1,2.39,2.4c.05,1,0,2.11,0,3.16v.67H37a36.74,36.74,0,0,0,0-4.58,3.56,3.56,0,0,0-3.58-2.94q-12.55,0-25.12,0A3.66,3.66,0,0,0,4.58,5.25c-.09,1.58,0,11.21,0,12.79,0,.21,0,.43,0,.64a.84.84,0,0,1-.87.84.83.83,0,0,1-.85-.86c0-2-.13-12,.1-13.95A5.2,5.2,0,0,1,6.8.22L7.51,0ZM12.51,33.07h9.18a2.1,2.1,0,0,0,2.25-1.7,2.15,2.15,0,0,0-2.27-2.63H12.94c-.13,0-.26,0-.43,0Z"/><path class="cls-2" d="M20.8,42.72c1.5,0,3,0,4.49,0a3.28,3.28,0,0,1,3.2,4.33,3,3,0,0,1-2.69,2.26,29.18,29.18,0,0,1-3,.08h-6.3A3.34,3.34,0,0,1,16,42.75a2.58,2.58,0,0,1,.29,0Zm0,1.76H16.35A1.52,1.52,0,0,0,14.7,46a1.5,1.5,0,0,0,1.6,1.62q4.51,0,9,0a1.94,1.94,0,0,0,1.05-.4,1.46,1.46,0,0,0,.43-1.7,1.51,1.51,0,0,0-1.48-1Z"/><path class="cls-3" d="M21.18,13.89h3.38a1.57,1.57,0,0,1,1.77,1.76c0,1.44,0,2.89,0,4.33a1.55,1.55,0,0,1-1.68,1.74c-2.33,0-4.67,0-7,0A1.55,1.55,0,0,1,16,20c0-1.46,0-2.93,0-4.39a1.54,1.54,0,0,1,1.71-1.7C18.85,13.88,20,13.89,21.18,13.89ZM24.55,20V15.7H17.71v2.91c0,1.38,0,1.38,1.36,1.38Z"/><path class="cls-4" d="M45,33.52c-.85,0-1.68,0-2.52,0a.7.7,0,0,0-.41.28,1.8,1.8,0,0,0-.2.49c-.28.74-.7,1-1.24.83s-.68-.69-.4-1.43C41,31.78,41.7,29.87,42.42,28c.07-.18.14-.37.2-.55a1,1,0,0,1,1-.75,1,1,0,0,1,1,.75l2,5.2c.17.46.36.91.51,1.37a.87.87,0,0,1-.46,1.12.85.85,0,0,1-1.15-.49,5,5,0,0,1-.21-.54Zm-2.16-1.78h1.51l-.75-2Z"/><path class="cls-5" d="M36.93,32.22c0,.68,0,1.28,0,1.88s-.31,1.07-.88,1.06-.86-.35-.86-1.08q0-3.15,0-6.32c0-.8.3-1.11,1.08-1.12a17.31,17.31,0,0,1,2,.06,2.69,2.69,0,0,1,2.43,2.86,2.73,2.73,0,0,1-2.6,2.65C37.77,32.24,37.4,32.22,36.93,32.22Zm0-1.76c.73,0,1.52.23,1.89-.59a1.19,1.19,0,0,0-.08-1c-.44-.65-1.15-.46-1.81-.43Z"/><path class="cls-6" d="M49.5,29.23l1.3-2c.37-.56.87-.71,1.32-.41s.5.79.13,1.39a2,2,0,0,1-.16.24A6.91,6.91,0,0,0,50.36,34c.09.77-.38,1.21-1,1.12a.82.82,0,0,1-.74-.9c0-.88,0-1.76,0-2.63a1.94,1.94,0,0,0-.27-.92c-.52-.87-1.09-1.7-1.64-2.56a.9.9,0,0,1,.14-1.34c.45-.31,1-.17,1.33.39S49,28.5,49.5,29.23Z"/><path class="cls-7" d="M41.67,17.58a6.43,6.43,0,0,1,0,.76.82.82,0,0,1-.83.81A.79.79,0,0,1,40,18.4a8.07,8.07,0,0,1,0-1.63.78.78,0,0,1,.88-.74.79.79,0,0,1,.83.79A6.43,6.43,0,0,1,41.67,17.58Z"/><path class="cls-8" d="M46.55,17.54a5.59,5.59,0,0,1,0-.82.75.75,0,0,1,.8-.69.72.72,0,0,1,.85.62,8.8,8.8,0,0,1,0,1.85.75.75,0,0,1-.89.65.78.78,0,0,1-.77-.74,8.42,8.42,0,0,1,0-.87Z"/><path class="cls-9" d="M33.84,17.57a6.26,6.26,0,0,1,0,.75.85.85,0,0,1-.88.83.82.82,0,0,1-.85-.85c0-.46,0-.93,0-1.4a.81.81,0,0,1,.82-.87.84.84,0,0,1,.91.84c0,.23,0,.46,0,.7Z"/><path class="cls-10" d="M36.65,17.6a7.48,7.48,0,0,1,0-.82A.77.77,0,0,1,37.4,16a.75.75,0,0,1,.91.62,8.8,8.8,0,0,1,0,1.85c0,.47-.43.67-.9.64a.77.77,0,0,1-.77-.78c0-.26,0-.51,0-.76Z"/><path class="cls-11" d="M51.37,17.58c0,.25,0,.51,0,.76a.77.77,0,0,1-.82.8.74.74,0,0,1-.86-.68,8.43,8.43,0,0,1,0-1.74.75.75,0,0,1,.91-.69.77.77,0,0,1,.77.79C51.38,17.08,51.37,17.33,51.37,17.58Z"/></svg>